<?xml version="1.0" encoding="utf-8"?>
<!-- Generator: Adobe Illustrator 24.0.0, SVG Export Plug-In . SVG Version: 6.00 Build 0)  -->
<svg version="1.1" id="圖層_1" xmlns="http://www.w3.org/2000/svg" xmlns:xlink="http://www.w3.org/1999/xlink" x="0px" y="0px"
	 viewBox="0 0 85.41 105.88" style="enable-background:new 0 0 85.41 105.88;" xml:space="preserve">
<style type="text/css">
	.st0{opacity:0.2;}
	.st1{fill:#040000;}
</style>
<g>
	<path d="M54.49,93.18C49.38,74.92,34.78,33.3,5.57,12.13C3.38,11.4,2.65,9.94,2.65,7.74c0-0.73,0-5.11,5.11-5.11
		c15.34,0,67.91,49.66,75.21,75.94c0,16.07,0,24.83-10.22,24.83C64.71,103.4,56.68,103.4,54.49,93.18z"/>
</g>
<g>
	<path d="M159.56,55.46c0.42,58.32-12.21,100.44-37.56,125.18c-19.03,18.58-46.03,27.45-80.25,26.36
		c-39.52-1.24-67.88-13.93-84.28-37.71c-37.09-53.78-5.15-149.25-4.82-150.2c2.23-6.46-1.2-13.54-7.67-15.78
		c-6.46-2.23-13.54,1.2-15.78,7.67c-1.51,4.38-36.56,107.93,7.81,172.34c21.12,30.66,56.09,46.97,103.95,48.47
		c2.06,0.07,4.2,0.1,6.34,0.1c38.29,0,69.25-11.27,92.02-33.51c30.36-29.63,45.51-77.76,45.04-143.02"/>
</g>
</svg>
