<?xml version="1.0" encoding="utf-8"?>
<!-- Generator: Adobe Illustrator 24.0.0, SVG Export Plug-In . SVG Version: 6.00 Build 0)  -->
<svg version="1.1" id="圖層_1" xmlns="http://www.w3.org/2000/svg" xmlns:xlink="http://www.w3.org/1999/xlink" x="0px" y="0px"
	 viewBox="0 0 199.9 34.12" style="enable-background:new 0 0 199.9 34.12;" xml:space="preserve">
<style type="text/css">
	.st0{opacity:0.2;}
	.st1{fill:#040000;}
</style>
<g>
	<path d="M184.55,5.54l11.25,16.25l-13.66,9.34h-12.45H39.93H27.88h-7.54h-9.34c-10.04,0-9.64-2.03-6.43-15.44
		c1.21-3.25,3.62-4.88,6.43-4.88h156.67c1.61,0,3.21-1.62,4.42-4.06c0.8-2.44,3.21-3.66,5.62-4.06
		C180.13,2.7,182.94,3.51,184.55,5.54z"/>
</g>
<g>
	<path d="M-1.75-43.44c0-1.66,3.41-3.32,8.87-3.32c5.46-0.55,8.87-3.32,8.87-7.76s-4.78-7.76-14.33-7.76L-38.6-64.5l1.37,14.41
		c0,12.19-8.87,84.23-63.45,157.93c-1.36,1.66-2.04,3.33-2.04,4.99c0,2.22,2.04,3.88,5.46,3.88c5.46,0,39.57-32.69,60.72-74.26
		l12.96-27.15l8.19-16.62L-1.75-43.44z"/>
</g>
</svg>
