<?xml version="1.0" encoding="utf-8"?>
<!-- Generator: Adobe Illustrator 24.0.0, SVG Export Plug-In . SVG Version: 6.00 Build 0)  -->
<svg version="1.1" id="圖層_1" xmlns="http://www.w3.org/2000/svg" xmlns:xlink="http://www.w3.org/1999/xlink" x="0px" y="0px"
	 viewBox="0 0 64.47 77.18" style="enable-background:new 0 0 64.47 77.18;" xml:space="preserve">
<style type="text/css">
	.st0{opacity:0.2;}
	.st1{fill:#040000;}
</style>
<g>
	<path d="M41.2,66.94C33.19,37.57,16.64,17.28,5.42,9.81c-1.6-0.53-2.13-2.14-2.13-3.2c0-0.53,0-3.74,3.74-3.74
		c11.75,0,50.2,36.85,55,52.87c0,12.28,0,18.69-6.94,18.69C48.14,74.42,42.27,74.42,41.2,66.94z"/>
</g>
<g>
	<path d="M172.04-22.71c-2.34-2.34-5.45-3.63-8.77-3.63h-38.42c-6.84,0-12.4,5.56-12.4,12.4c0,6.84,5.56,12.4,12.4,12.4h26.01
		l-0.01,118.88c0.42,58.32-12.21,100.44-37.56,125.18c-19.03,18.58-46.03,27.45-80.25,26.36c-39.52-1.24-67.88-13.93-84.28-37.71
		c-37.09-53.78-5.15-149.25-4.82-150.2c2.23-6.46-1.2-13.54-7.67-15.78c-6.46-2.23-13.54,1.2-15.78,7.67
		c-1.51,4.38-36.56,107.93,7.81,172.34c21.12,30.66,56.09,46.97,103.95,48.47c2.06,0.07,4.2,0.1,6.34,0.1
		c38.29,0,69.25-11.27,92.02-33.51c30.36-29.63,45.51-77.76,45.04-143.02l0.01-131.2C175.67-17.25,174.38-20.37,172.04-22.71z"/>
</g>
<g>
	<path d="M-11.17-146.5c0-1.66,3.41-3.32,8.87-3.32c5.46-0.55,8.87-3.32,8.87-7.76c0-4.43-4.78-7.76-14.33-7.76l-40.26-2.22
		l1.37,14.41c0,12.19-8.87,84.23-63.45,157.93c-1.36,1.66-2.04,3.33-2.04,4.99c0,2.22,2.04,3.88,5.46,3.88
		c5.46,0,39.57-32.69,60.72-74.26L-33-87.76l8.19-16.62L-11.17-146.5z"/>
</g>
</svg>
