<?xml version="1.0" encoding="utf-8"?>
<!-- Generator: Adobe Illustrator 24.0.0, SVG Export Plug-In . SVG Version: 6.00 Build 0)  -->
<svg version="1.1" id="圖層_1" xmlns="http://www.w3.org/2000/svg" xmlns:xlink="http://www.w3.org/1999/xlink" x="0px" y="0px"
	 viewBox="0 0 74.2 476.64" style="enable-background:new 0 0 74.2 476.64;" xml:space="preserve">
<style type="text/css">
	.st0{opacity:0.2;}
	.st1{fill:#040000;}
</style>
<g>
	<g>
		<path d="M38.27,461.02l18.77,11.25l10.8-13.66v-12.45V185.16v-12.05v-7.54v-9.34c0-10.04-2.35-9.64-17.84-6.43
			c-3.76,1.21-5.63,3.62-5.63,6.43v287.91c0,1.61-1.88,3.21-4.69,4.42c-2.82,0.8-4.22,3.21-4.69,5.62
			C34.99,456.6,35.93,459.41,38.27,461.02z"/>
	</g>
	<path d="M67.85,162.17l0.59-144.77c0-3.31-1.29-6.43-3.63-8.77C62.46,6.3,59.35,5,56.03,5H17.62c-6.84,0-12.4,5.56-12.4,12.4
		c0,6.84,5.56,12.4,12.4,12.4h26.01l0.75,128.01"/>
</g>
</svg>
