<svg width="24" height="23" viewBox="0 0 24 23" fill="none" xmlns="http://www.w3.org/2000/svg">
<path d="M11.9999 0C18.617 0 24 4.36849 24 9.73812C24 11.8872 23.167 13.8225 21.4279 15.7295C18.9103 18.6274 13.2808 22.1569 11.9999 22.6966C10.7552 23.2212 10.8989 22.4013 10.9559 22.0764C10.9575 22.0671 10.9591 22.0582 10.9606 22.0497C10.9909 21.8694 11.1317 21.0226 11.1317 21.0226C11.1722 20.7162 11.2141 20.2409 11.0931 19.9375C10.9585 19.6034 10.4266 19.43 10.0358 19.3458C4.26911 18.5834 0 14.552 0 9.73812C0 4.36849 5.38366 0 11.9999 0ZM7.53282 11.5294H5.24575V7.37693C5.24575 7.24788 5.14108 7.14321 5.01226 7.14321H4.1703C4.04125 7.14321 3.93658 7.24788 3.93658 7.37693V12.6053C3.93658 12.6681 3.96166 12.7249 4.00191 12.7668L4.00331 12.7685L4.00513 12.7703L4.00858 12.7735C4.05068 12.814 4.10727 12.8388 4.17007 12.8388H7.53282C7.66187 12.8388 7.76608 12.7339 7.76608 12.6049V11.7631C7.76608 11.6341 7.66187 11.5294 7.53282 11.5294ZM8.72008 7.14334C8.59103 7.14334 8.48613 7.24801 8.48613 7.37661V12.6054C8.48613 12.7343 8.59103 12.8387 8.72008 12.8387H9.56181C9.69086 12.8387 9.79553 12.7343 9.79553 12.6054V7.37661C9.79553 7.24801 9.69086 7.14334 9.56181 7.14334H8.72008ZM14.5137 7.14334C14.3846 7.14334 14.2799 7.24801 14.2799 7.37661V10.4831L11.8838 7.24709C11.8783 7.23881 11.8721 7.23099 11.8656 7.2234L11.864 7.22202C11.8594 7.21673 11.8548 7.21213 11.85 7.20753L11.8456 7.20362C11.8417 7.19993 11.8376 7.19648 11.8332 7.19326C11.8319 7.19191 11.8304 7.19081 11.8289 7.18969L11.8272 7.18843L11.8194 7.18303L11.815 7.18015C11.8127 7.17854 11.8104 7.17716 11.8079 7.17601C11.8038 7.17348 11.7996 7.17095 11.7955 7.16888L11.7927 7.16752L11.7881 7.16542C11.7837 7.16336 11.7794 7.16129 11.7748 7.15968L11.7672 7.15692C11.7626 7.15531 11.758 7.1537 11.7532 7.15255L11.749 7.15133L11.7451 7.15025L11.7318 7.14725L11.7219 7.1461L11.7185 7.14548L11.7126 7.14481L11.7094 7.14449L11.7015 7.14398L11.6975 7.1438L11.6892 7.14334H10.8477C10.7187 7.14334 10.6138 7.24801 10.6138 7.37661V12.6054C10.6138 12.7343 10.7187 12.8387 10.8477 12.8387H11.6892C11.8185 12.8387 11.9232 12.7343 11.9232 12.6054V9.49989L14.3223 12.74C14.3388 12.7635 14.3593 12.7826 14.3816 12.7978L14.3839 12.7996L14.3984 12.8083C14.4007 12.8097 14.4028 12.8106 14.4051 12.8118C14.4085 12.8139 14.4124 12.8157 14.4161 12.8173L14.4276 12.8221L14.4345 12.8247C14.44 12.8267 14.4451 12.8284 14.4504 12.83C14.4515 12.83 14.4527 12.8304 14.4538 12.8307C14.4729 12.8357 14.493 12.8387 14.5137 12.8387H15.3554C15.4847 12.8387 15.5891 12.7343 15.5891 12.6054V7.37661C15.5891 7.24801 15.4847 7.14334 15.3554 7.14334H14.5137ZM20.2369 8.21888V7.37716C20.2369 7.24811 20.1327 7.14321 20.0037 7.14321H16.6407C16.5777 7.14321 16.5208 7.16851 16.4787 7.20923L16.4775 7.21027L16.476 7.21176L16.4723 7.2159C16.4323 7.25777 16.4074 7.31436 16.4074 7.37693V12.6053C16.4074 12.6681 16.4325 12.7249 16.4728 12.7668C16.4737 12.768 16.4748 12.7693 16.476 12.7703C16.4769 12.7714 16.4783 12.7726 16.4794 12.7735C16.5213 12.8137 16.5781 12.8388 16.6407 12.8388H20.0037C20.1327 12.8388 20.2369 12.7339 20.2369 12.6051V11.7631C20.2369 11.6343 20.1327 11.5294 20.0037 11.5294H17.7168V10.6456H20.0037C20.1327 10.6456 20.2369 10.5409 20.2369 10.4119V9.57015C20.2369 9.44109 20.1327 9.33619 20.0037 9.33619H17.7168V8.4526H20.0037C20.1327 8.4526 20.2369 8.34817 20.2369 8.21888Z" fill="#D6D6D6"/>
</svg>
