<?xml version="1.0" encoding="utf-8"?>
<!-- Generator: Adobe Illustrator 24.0.0, SVG Export Plug-In . SVG Version: 6.00 Build 0)  -->
<svg version="1.1" id="圖層_1" xmlns="http://www.w3.org/2000/svg" xmlns:xlink="http://www.w3.org/1999/xlink" x="0px" y="0px"
	 viewBox="0 0 188.76 188.22" style="enable-background:new 0 0 188.76 188.22;" xml:space="preserve">
<style type="text/css">
	.st0{opacity:0.2;}
</style>
<g>
	<g>
		<path d="M93.82,15c27.84,0,46.26,12.71,56.81,23.37c12.98,13.11,21.51,30.84,22.84,47.42c2.35,29.47-9.38,49.17-19.64,60.5
			c-15.01,16.58-36.62,26.38-59.32,26.92c-21.26-0.66-40.27-8.32-54.99-22.16c-13.97-13.13-22.55-30.63-24.16-49.29
			c-2.41-27.87,8.23-46.92,17.58-57.99C46.42,27.81,66.81,16.9,86.14,15.32C88.71,15.11,91.3,15,93.82,15 M93.82,0
			c-2.91,0-5.88,0.12-8.9,0.37C45.27,3.62-5.03,40.21,0.4,103.06c3.89,45.03,41.64,83.72,94.04,85.16
			c50.65-0.99,98.9-41.89,93.98-103.62C185.34,45.99,150.69,0,93.82,0L93.82,0z"/>
	</g>
	<path d="M102.68,174.5c0-14.82,0-56.73,0-71.84c-5.11,0-10.05,0-15.18,0c0-5.99,0-11.7,0-17.71c4.95,0,9.87,0,15.2,0
		c0-4.65-0.09-9.01,0.02-13.35c0.14-5.65,1.29-11.02,4.98-15.56c3.95-4.86,9.31-7.03,15.34-7.39c5.21-0.31,10.46-0.06,15.84-0.06
		c0,5.92,0,11.04,0,16.52c-3.31,0-6.5-0.08-9.69,0.02c-6.32,0.19-8.38,2.33-8.39,8.59c-0.01,3.41,0.02,6.83,0.05,10.24
		c0,0.18,0.12,0.35,0.3,0.83c5.49,0,11.1,0,17.14,0c-0.78,6.07-1.51,11.78-2.28,17.74c-5.09,0-9.93,0-15.18,0
		c0,15.15,0,57.12,0,71.99C114.79,174.5,108.73,174.5,102.68,174.5z"/>
</g>
</svg>
