<?xml version="1.0" encoding="utf-8"?>
<!-- Generator: Adobe Illustrator 24.0.0, SVG Export Plug-In . SVG Version: 6.00 Build 0)  -->
<svg version="1.1" id="圖層_1" xmlns="http://www.w3.org/2000/svg" xmlns:xlink="http://www.w3.org/1999/xlink" x="0px" y="0px"
	 viewBox="0 0 188.76 188.22" style="enable-background:new 0 0 188.76 188.22;" xml:space="preserve">
<style type="text/css">
	.st0{opacity:0.2;}
</style>
<g>
	<path d="M94.47-1.09c-53.87,0.28-94.17,39.6-94.54,94c-0.35,51.92,39.48,93.28,94.42,94.4c54.02-1,94.39-41.52,94.5-93.91
		C188.95,39.35,147.46-1.37,94.47-1.09z M79.03,13.33c5.25-0.96,10.49-0.85,15.77-0.97c19.53-0.2,36.68,6.12,51.64,18.66
		c1.45,1.21,1.9,1.67,0.49,3.27c-10.57,12.02-23.43,20.64-38.31,26.44c-2.16,0.84-3.29,0.78-4.37-1.23
		C96.33,44.69,86.97,30.78,77.2,17.16C74.89,13.95,75.96,13.89,79.03,13.33z M17.37,67.1c7.09-19.96,20.29-34.82,38.4-45.52
		c2.68-1.58,4.52-1.73,6.67,1.39c9.39,13.6,18.48,27.38,26.73,41.71c1.25,2.18,0.68,2.3-1.25,2.75
		c-12.85,2.95-25.72,5.63-38.86,7.05c-8.05,0.87-16.07,1.75-24.16,1.91c-0.33,0-0.67,0-1,0C14.2,76.39,14.08,76.35,17.37,67.1z
		 M14.17,105.04c-0.54-3.79-0.71-7.54-0.92-11.32c-0.13-2.47,0.44-3.4,3.21-3.41c26.22-0.12,52.02-3.37,77.25-10.69
		c2.43-0.71,3.93-0.04,4.9,2.57c1.29,3.5,3.09,6.82,4.87,10.66c-30.28,9.18-52.3,28.42-69.5,54.32
		C23.23,134.92,16.46,121.11,14.17,105.04z M119.21,170.11c-24.75,7.75-47.92,4.21-69.79-9.5c-4.01-2.52-4.85-4.66-2.09-8.82
		c12.1-18.25,28.67-31.06,48.21-40.34c3.5-1.66,7.26-2.79,10.78-4.42c1.69-0.78,2.54-0.91,3.26,1.09
		c5.61,15.66,10.87,31.41,13.79,47.84c1.58,1.23,0.75,3.1,1.17,4.64C126.49,167.71,126.4,167.74,119.21,170.11z M174.02,108.36
		c-1.09,5.18-1.87,10.47-4.77,15.08c0.26,1.52-0.98,2.54-1.3,3.87c-2.97,6.62-6.79,12.69-11.7,18.04c-2.96,3.69-6.2,7.1-10.04,9.92
		c0,0-0.09,0.04-0.09,0.04c0,0,0,0,0,0l0,0c-6.52,5.22-6.24,5.16-7.95-3.24c-3.39-16.61-8.14-32.86-14.1-49.31
		c9.84-2.54,19.73-1.68,29.45-0.98c6.09,0.44,12.3,1.44,18.27,3.4C173.85,105.86,174.68,106.28,174.02,108.36z M128.66,89.19
		c-9.38,1.32-9.42,0.98-13.11-7.12c-3.61-7.94-3.65-8.03,4.5-12.01c13.35-6.52,25.36-14.8,35.16-26.09c0.8-0.92,1.42-3.33,3.49-0.64
		c9.18,11.95,18.04,32.86,16.29,48.46C159.6,90.06,144.34,86.98,128.66,89.19z"/>
</g>
</svg>
