<?xml version="1.0" encoding="utf-8"?>
<!-- Generator: Adobe Illustrator 24.0.0, SVG Export Plug-In . SVG Version: 6.00 Build 0)  -->
<svg version="1.1" id="圖層_1" xmlns="http://www.w3.org/2000/svg" xmlns:xlink="http://www.w3.org/1999/xlink" x="0px" y="0px"
	 viewBox="0 0 187.91 188.22" style="enable-background:new 0 0 187.91 188.22;" xml:space="preserve">
<style type="text/css">
	.st0{opacity:0.2;}
</style>
<g>
	<path d="M187.91,96.13c0.14-4.4,0.14-8.81,0-13.21l0,0c0-0.09,0-0.19,0-0.28l0,0h0c0.12-1.92,0.1-3.83-0.03-5.75l0,0
		c0-1.05,0-2.11,0-3.16v0l0,0c-0.02-2.69-0.04-5.38-0.07-8.06c0,0,0,0,0,0c0,0,0,0,0,0c0.09-1.34,0.03-2.68-0.21-4c0,0,0,0,0,0l0,0
		c0.1-3.07-0.12-6.14-0.35-9.2c-0.15-2.13-0.22-4.26-0.75-6.34c0,0,0,0,0,0c0,0,0,0,0,0c-0.05-1.86-0.48-3.64-0.96-5.42h0l0,0
		c-0.35-1.76-0.77-3.5-1.45-5.17c-0.21-1.12-0.66-2.15-1.15-3.16c-0.3-1.12-0.71-2.2-1.36-3.17c-0.14-0.65-0.4-1.23-0.84-1.73
		c0,0,0,0,0,0c0,0,0,0,0,0c-0.15-0.41-0.66-0.63-0.65-1.13c-0.27-0.88-0.73-1.64-1.34-2.32l0,0v0c-1.34-2.35-2.92-4.5-4.93-6.32h0
		c-1.17-1.7-2.71-3.01-4.29-4.3c0,0,0,0,0,0c0,0,0,0,0,0c-1.97-1.75-4-3.41-6.35-4.63c-2.16-1.42-4.44-2.6-6.91-3.4
		c-1.45-0.78-3.02-1.24-4.6-1.67c-1.02-0.41-2.05-0.76-3.15-0.87c-0.1-0.01-0.19-0.02-0.29-0.04c-0.61-0.44-1.32-0.34-2-0.33
		c-0.04-0.16-0.12-0.26-0.3-0.22h0l0,0c-0.47-0.13-1.01,0.05-1.44-0.28c-0.56-0.2-1.11-0.4-1.72-0.29
		c-0.58-0.09-1.15-0.19-1.73-0.28c-2-0.34-4-0.61-6.03-0.58v0l0,0c-0.79-0.06-1.57-0.12-2.36-0.18c0,0,0,0,0,0
		c-1.03-0.15-2.06-0.18-3.09-0.1c-3.55-0.19-7.09-0.49-10.64-0.3c-3.73-0.11-7.47-0.21-11.2-0.04c0,0,0,0,0,0c0,0,0,0,0,0
		c-0.17,0-0.34-0.01-0.52-0.01c0,0,0,0,0,0c-0.55-0.25-1.13-0.15-1.7-0.15c-5.98-0.01-11.96-0.01-17.94,0.01
		c-0.61,0-1.22,0.01-1.83,0.02c-1.35,0-2.69,0.01-4.04,0.08c0,0,0,0,0,0c-1.05-0.09-2.1-0.17-3.15-0.08c-0.33,0.02-0.67,0.06-1,0.14
		c0,0,0,0,0,0l0.01-0.01c-1.91-0.08-3.82-0.14-5.73,0.04c0,0,0,0,0,0c0,0,0,0,0,0c-4.39-0.18-8.78,0.08-13.17,0.23
		c-5.2,0.18-10.39,0.49-15.51,1.47c-5.11,0.98-10.09,2.38-14.71,4.84c-2.18,0.85-4.16,2.06-6.02,3.47l0,0h0
		c-0.67,0.47-1.34,0.95-2.02,1.42c-0.63,0.42-1.25,0.84-1.72,1.45l0,0c-0.43,0.15-0.67,0.5-0.94,0.83l0,0
		c-1.26,0.93-2.37,2.03-3.35,3.26c-0.38,0.27-0.7,0.6-0.9,1.04c-0.72,0.57-1.3,1.25-1.75,2.04l0,0c-1.22,1.4-2.31,2.89-3.13,4.56
		c-0.79,0.93-1.27,2.03-1.75,3.13c-1.32,2.4-2.37,4.91-3.08,7.56c-0.8,1.83-1.23,3.76-1.53,5.72c-0.31,0.34-0.24,0.76-0.25,1.16
		c-0.35,0.93-0.48,1.9-0.52,2.89c-0.6,2.45-0.71,4.95-0.86,7.45c-0.11,1.82-0.38,3.63-0.27,5.47c-0.02,0.96-0.03,1.91-0.05,2.87
		c-0.43,2.96-0.32,5.93-0.27,8.9c-0.01,1.15-0.01,2.3-0.02,3.45c0,1.63,0,3.25,0,4.88c0,0.67,0,1.34,0,2.01c0,0.1,0,0.2,0,0.29
		c0.06,0.08,0.1,0.16,0.12,0.25c0.01,0.03,0.01,0.07,0.02,0.1c-0.05-0.12-0.1-0.24-0.14-0.35C-0.08,81.2-0.12,81.77,0,82.35
		c0,0,0,0,0,0c0,0,0,0,0,0c-0.12,2.4-0.13,4.79,0,7.19c-0.13,0.86-0.12,1.72,0,2.58l0,0c0,0.29,0,0.58,0,0.87c0,0,0,0,0,0
		c0,0.67,0,1.34,0,2.01c0,0,0,0,0,0c0,0,0,0,0,0c0,0.38,0,0.76,0.01,1.14C0,96.33,0,96.52,0,96.71c0,1.82,0,3.64,0,5.46l0,0
		c0,0.19,0,0.38,0,0.57c0,0.29,0,0.57,0.01,0.86c0,0.48,0.01,0.96,0.01,1.44c-0.11,1.15-0.12,2.3,0,3.45
		c0.01,2.58,0.01,5.17,0.02,7.75c0,0,0,0,0,0c0,0,0,0,0,0c0,1.05,0.01,2.11,0.01,3.16h0l0,0c-0.06,4.34,0.15,8.67,0.49,13
		c0,0,0,0,0,0c0,0,0,0,0,0c-0.07,2.42,0.1,4.83,0.51,7.21c0,0.01-0.01,0.03-0.01,0.04c-0.01,0.18,0.03,0.35,0.11,0.51
		c-0.03,1.26,0.17,2.49,0.5,3.7c0.02,0.1,0.05,0.19,0.08,0.29c-0.02,1,0.19,1.95,0.57,2.86c0.15,1.59,0.61,3.09,1.16,4.58
		c0,0.54,0.22,1,0.49,1.45c0.07,0.71,0.33,1.35,0.66,1.97c0.28,0.93,0.54,1.87,1.1,2.68l0,0l0,0c0.11,0.72,0.49,1.33,0.87,1.94l0,0
		c0.17,0.64,0.45,1.24,0.89,1.74l0,0c0.1,0.18,0.2,0.36,0.29,0.54c0.58,1.36,1.36,2.59,2.31,3.72l0,0c0.31,0.79,0.9,1.39,1.44,2.02
		c0.62,1,1.4,1.87,2.25,2.67l0,0c0.67,0.93,1.46,1.74,2.37,2.45c0.25,0.42,0.56,0.77,1.02,0.96c0.58,0.78,1.33,1.37,2.13,1.91l0,0
		c0.6,0.59,1.22,1.15,1.98,1.53l0,0c0.74,0.76,1.66,1.27,2.58,1.79l0,0c0.57,0.61,1.36,0.87,2.05,1.28
		c0.76,0.38,1.53,0.76,2.29,1.14c0,0,0,0,0,0l0,0c0.82,0.47,1.63,0.96,2.58,1.16c1.83,0.94,3.75,1.62,5.75,2.07
		c2.69,1,5.48,1.58,8.32,1.93h0c3.05,0.67,6.15,0.86,9.25,1.02c6.3,0.33,12.6,0.65,18.92,0.47c0.86,0.01,1.72,0.03,2.58,0.04
		c0,0,0,0,0,0c0,0,0,0,0,0c0.28,0.05,0.55,0.14,0.83,0.14c9.55,0.01,19.1,0.01,28.65,0c0.33,0,0.65-0.09,0.98-0.15v0
		c1.05,0.12,2.11,0.13,3.16,0c0.57,0.13,1.15,0.12,1.72,0c1.54,0.12,3.07,0.16,4.61-0.01l0,0c1.53-0.01,3.06-0.03,4.59-0.04
		c0,0,0,0,0,0c0,0,0,0,0,0c0.77-0.01,1.54-0.01,2.3-0.02c2.02,0.11,4.02-0.11,6.03-0.27c1.35,0.05,2.71,0.09,4.04-0.19l0,0v0
		c1.04-0.03,2.09-0.07,3.13-0.1c0.59,0.02,1.17,0,1.72-0.25c0.1-0.01,0.2-0.02,0.29-0.02c0,0,0,0,0,0c0,0,0,0,0,0
		c0.78,0.09,1.55,0.04,2.3-0.23l0,0l0,0c0.98,0.07,1.93-0.14,2.87-0.39c1.47-0.08,2.9-0.4,4.31-0.82c0.89-0.05,1.74-0.29,2.57-0.62
		c0.84-0.12,1.66-0.33,2.41-0.75l0,0c0,0,0,0,0,0c0.9-0.1,1.74-0.38,2.49-0.9l0,0c1.27-0.15,2.38-0.75,3.49-1.33
		c0.29-0.1,0.63-0.07,0.82-0.38c0.95-0.31,1.83-0.74,2.63-1.34h0c0,0,0,0,0,0c0.64-0.17,1.17-0.53,1.68-0.95
		c1.12-0.54,2.17-1.2,3.09-2.05l0,0c0.59-0.26,1.08-0.64,1.5-1.13c2.18-1.56,4.1-3.39,5.83-5.43c0.52-0.42,0.99-0.89,1.33-1.47
		c1.02-1.04,1.92-2.17,2.65-3.43c0.32-0.2,0.51-0.49,0.57-0.86c0.51-0.49,0.9-1.06,1.11-1.75c0,0,0,0,0,0c0,0,0,0,0,0
		c0.94-1.23,1.62-2.61,2.22-4.03c0,0,0,0,0,0l0,0c0.89-1.74,1.66-3.53,2.18-5.42c1.62-4.07,2.46-8.33,3.02-12.66l0,0
		c0.91-6.86,1.01-13.77,1.14-20.68c0,0,0,0,0,0c0,0,0,0,0,0c0.03-1.56,0.12-3.12,0.06-4.68c-0.03-0.86,0.36-1.78-0.26-2.58
		c0.21-0.21,0.32-0.44,0.31-0.76c-0.02-3.74-0.03-7.49-0.04-11.23c0-0.48,0-0.96,0-1.44l0,0l0,0
		C188.04,98.62,188.04,97.37,187.91,96.13z M171.8,82.06c0.02,0.02,0.04,0.04,0.06,0.06c-0.02,0.01-0.04,0.02-0.06,0.02
		C171.8,82.11,171.8,82.08,171.8,82.06C171.8,82.06,171.8,82.06,171.8,82.06C171.8,82.06,171.8,82.06,171.8,82.06z M64.03,6.83
		c0-0.01-0.01-0.02-0.02-0.02c0.02,0,0.04,0,0.06,0C64.06,6.81,64.05,6.82,64.03,6.83z M16.11,101.3L16.11,101.3
		c0,0.03,0,0.06,0,0.09c-0.02,0-0.03,0-0.05,0C16.08,101.36,16.09,101.34,16.11,101.3z M15.94,91.42c0,0.01,0,0.01,0,0.02
		c-0.01,0-0.02,0.01-0.03,0.01C15.91,91.44,15.92,91.43,15.94,91.42z M16.28,82.77c0.03-0.05,0.06-0.09,0.1-0.13c0,0,0,0,0,0
		c0,0,0,0,0,0c0,0.05,0,0.1,0,0.15C16.35,82.78,16.32,82.77,16.28,82.77z M116.92,16.56c0,0,0.01,0,0.01,0.01
		C116.93,16.57,116.92,16.57,116.92,16.56C116.92,16.57,116.92,16.57,116.92,16.56z M156.58,22.87c0,0,0-0.01,0.01-0.01
		C156.59,22.86,156.59,22.86,156.58,22.87c0,0,0,0.01-0.01,0.02c0,0,0,0,0,0c0,0,0,0,0,0C156.57,22.88,156.58,22.88,156.58,22.87z
		 M161.02,160.09c-0.13-0.01-0.26-0.01-0.4-0.01c-1.28,0.47-2.27,1.21-2.48,2.65c-0.91-0.13-1.36,0.27-1.46,1.07
		c-0.67-0.18-0.97,0.17-1.03,0.87c-0.1,0.05-0.2,0.1-0.3,0.16c-0.41,0.16-0.77,0.4-1.1,0.7h0c-0.16,0.09-0.32,0.18-0.48,0.28
		c-0.46-0.24-0.86-0.13-1.2,0.27c-0.03,0.58-0.39,0.1-0.58,0.19c-0.74,0.05-1.36,0.28-1.68,1.02c0,0.03,0,0.06,0,0.09
		c-0.18,0.03-0.34,0.11-0.49,0.22c0-0.01-0.01-0.03-0.01-0.04c-1.3-0.4-2.33,0.06-3.22,0.99c-0.01,0.01-0.01,0.02-0.01,0.03
		c-0.34-0.17-0.67-0.09-0.99,0.21c-0.06,0.1-0.11,0.2-0.14,0.31c-1.46,0.31-2.91,0.62-4.37,0.93l0,0v0
		c-1.24,0.19-2.48,0.38-3.72,0.56l0,0c-0.64,0.06-1.27,0.16-1.92,0.16c-1.02,0.01-2.05-0.01-3.07,0.07
		c-0.36-0.14-0.72-0.15-1.08,0.13c-0.06,0.01-0.12,0.02-0.18,0.03c-0.13-0.05-0.28,0-0.43,0.08c-0.17,0.01-0.34,0.02-0.51,0.04
		c-0.76,0.02-1.52,0.03-2.28,0.05c0,0,0,0,0,0c0,0,0,0,0,0c-1.37-0.05-2.74-0.07-4.1,0.18c-2.66,0.03-5.31,0.05-7.97,0.08
		c-1.81,0-3.63-0.01-5.44-0.01c-0.2,0-0.41,0-0.61,0c-0.07-0.04-0.15-0.09-0.22-0.12c-0.83-0.03-1.67-0.17-2.49,0.12
		c-0.01,0-0.01,0.01-0.01,0.01c-2.36,0.01-4.71,0.01-7.07,0.02c-0.31-0.09-0.64-0.15-0.99-0.19c-0.57-0.01-1.15-0.05-1.71,0
		c-0.71,0.07-1.49-0.23-2.14,0.19c-0.06,0-0.11,0-0.17,0c-0.17-0.07-0.34-0.14-0.51-0.19c-1.08-0.03-2.15-0.04-3.23-0.01
		c-0.53,0.01-1.12-0.14-1.58,0.2c-0.11-0.06-0.21-0.12-0.32-0.18c-0.43-0.21-0.87-0.43-1.36-0.46c-2.53-0.12-5.06-0.05-7.59-0.05
		c-0.75,0-1.53-0.12-2.24,0.29c-0.1,0.16-0.16,0.3-0.2,0.42c0,0,0,0-0.01,0c-1.73-0.01-3.45-0.02-5.18-0.03c0,0,0,0,0,0
		c-2.13-0.02-4.26-0.05-6.39-0.07c-0.22-0.27-0.48-0.5-0.8-0.65c-0.88-0.34-1.8-0.2-2.7-0.24c-1.67-0.07-3.34-0.07-5.01-0.14
		c-3.29-0.14-6.56-0.57-9.85-0.65c-0.12,0.02-0.23,0.05-0.34,0.1c-0.15-0.21-0.4-0.32-0.67-0.38c-1.08-0.26-2.15-0.59-3.28-0.56
		c-0.11,0.01-0.22,0.04-0.33,0.08c-0.1-0.15-0.25-0.26-0.43-0.33c-1.77-0.63-3.48-1.52-5.42-1.57c-0.09,0.02-0.17,0.06-0.24,0.09
		c-0.41-0.63-0.96-0.94-1.77-0.66c-0.57-1.25-1.46-1.81-2.72-1.7c0-0.02,0-0.03,0-0.05c-0.44-1.12-1.43-1.58-2.43-2.03
		c-0.2,0-0.41,0-0.61,0.01c-0.71-0.63-1.42-1.25-2.13-1.88c0.02-0.15,0.03-0.3,0.04-0.47c-0.37-1.11-1.13-1.84-2.21-2.24
		c-0.08-0.01-0.17-0.02-0.25-0.03c-0.57-0.75-1.14-1.5-1.71-2.25c0.03-0.09,0.05-0.19,0.08-0.29c-0.05-1.2-0.49-2.15-1.66-2.63
		c0.18-0.43-0.08-0.74-0.37-1.04c-0.02-0.02-0.04-0.03-0.06-0.05c0.33-0.8,0.06-1.37-0.9-1.67c0.04-0.04,0.07-0.07,0.11-0.11
		c0.34-1.09-0.13-1.88-0.92-2.57c-0.07-0.02-0.13-0.03-0.2-0.05c-0.25-0.82-0.5-1.64-0.74-2.46c0.09-0.13,0.18-0.27,0.27-0.42
		c0.12-0.46,0.03-0.89-0.25-1.27c-0.13-0.15-0.27-0.28-0.41-0.41c-0.1-0.91-0.3-1.8-0.71-2.64c0.01,0,0.02,0,0.03,0
		c0.72-0.37,0.77-1.04,0.67-1.7c-0.24-1.63-0.34-3.27-0.61-4.89c-0.27-0.37-0.44-0.76-0.54-1.17c0-0.47-0.04-0.94-0.17-1.4
		c0-0.03,0-0.06,0-0.09c0-0.01-0.01-0.02-0.01-0.03c0.05-0.02,0.09-0.05,0.14-0.09c0.78-2.46,0.51-4.93,0.1-7.41
		c-0.13-0.47-0.33-0.81-0.58-1.03c-0.01-1.66-0.03-3.32-0.04-4.98c0-0.25,0-0.51,0-0.76c0.38-0.44,0.63-1,0.6-1.8
		c0.02-0.67,0.15-1.36-0.32-1.95c-0.11-0.08-0.21-0.13-0.3-0.16c0-1.06-0.01-2.11-0.01-3.17c0.2-0.42,0.08-0.95,0.3-1.36
		c0.04-0.29-0.04-0.55-0.16-0.81c-0.05-0.08-0.09-0.17-0.12-0.27c0.11-0.5-0.04-1.03-0.05-1.54c0-1.5,0-2.99,0-4.49
		c0.15-0.06,0.33-0.19,0.52-0.44c0.14-0.92,0.51-1.89-0.31-2.64c0.14-0.12,0.27-0.29,0.37-0.51c0.28-2.61,0.12-5.22,0.09-7.83
		c0-0.34-0.1-0.66-0.34-0.92c-0.1-0.11-0.22-0.17-0.35-0.18c0-0.04,0-0.08,0-0.12c0.19-0.33,0.23-0.65,0.03-0.96
		c0.08-0.15,0.14-0.31,0.18-0.51c0-1.38,0.15-2.76-0.1-4.13c0,0-0.01,0-0.01,0c0-0.41,0-0.81,0-1.22c0.31-1.3,0.3-2.59-0.03-3.89
		c0-0.32-0.01-0.64-0.01-0.96c0.3-0.47,0.58-0.96,0.62-1.54c-0.04-2.08,0.37-4.18-0.27-6.24c-0.11-0.09-0.21-0.15-0.3-0.19
		c0.12-0.14,0.18-0.28,0.18-0.42c0.13-0.16,0.24-0.34,0.31-0.54c0.19-1.15,0.2-2.3-0.01-3.45c-0.04-0.07-0.08-0.14-0.12-0.21
		c0.49-0.26,0.51-0.8,0.53-1.32c0.06-1.55,0.04-3.11,0-4.66c-0.01-0.51-0.13-0.97-0.49-1.34c0.15-0.03,0.29-0.1,0.4-0.21
		c0.27-0.3,0.38-0.66,0.36-1.05c-0.06-1.9,0.43-3.77,0.32-5.67c-0.05-0.32-0.19-0.61-0.31-0.91c-0.01-0.01-0.02-0.02-0.03-0.03
		c0.01-0.07,0.01-0.13,0.01-0.2c0.11-0.15,0.15-0.34,0.17-0.55c-0.02-0.11-0.06-0.21-0.13-0.3c0.09-0.01,0.19-0.03,0.28-0.04
		c0.88-1.7,1.34-3.49,1.18-5.42c-0.04-0.04-0.07-0.08-0.11-0.12c0.4-0.19,0.37-0.52,0.21-0.9c1.1-0.91,1.85-2.87,1.62-4.18
		c0.02-0.02,0.05-0.03,0.07-0.05c0.98-0.99,1.63-2.12,1.59-3.54c0.11,0,0.23,0,0.3-0.07c1.55-1.4,2.76-3.07,3.79-4.88
		c0.03-0.06,0.03-0.13,0-0.21c1.45-0.4,2.17-1.19,2.27-2.48c1.91-0.14,3-1.57,4.25-2.73c2.09-0.59,3.98-1.65,5.95-2.54
		c0.27-0.12,0.45-0.36,0.49-0.66c0.59,0.52,1.26,0.23,1.89,0.04c1.79-0.54,3.6-0.94,5.44-1.28c1.78-0.33,3.61-0.34,5.36-0.86
		c0.38-0.17,0.74-0.37,1.11-0.58c0.97,0.01,1.94,0.03,2.89-0.1c0.16,0.13,0.4,0.19,0.6,0.28c0.18,0.08,0.36,0.12,0.55,0.14
		c0.89-0.02,1.79,0.02,2.68-0.09c0.56-0.26,1.12-0.32,1.68-0.01c2.46,0.29,4.88-0.17,7.3-0.44c0.09-0.13,0.18-0.24,0.28-0.34
		c0.23,0.38,0.59,0.54,1.01,0.54c2.45,0.04,4.9,0.24,7.34-0.13c0.17-0.05,0.3-0.15,0.41-0.27c0.63,0.67,1.51,0.34,2.29,0.4
		c0.66-0.25,1.32-0.46,1.99-0.63c7.23,0,14.45,0,21.68,0c3.04,0,6.09,0.01,9.13,0.01c0.25,0.05,0.51,0.11,0.76,0.16
		c0.84-0.03,1.7,0.18,2.51-0.15c0.27,0,0.53,0,0.8,0c-0.07-0.03-0.14-0.06-0.21-0.09c0.08,0.01,0.15,0.03,0.21,0.09
		c0.3,0,0.6,0,0.9,0.01c0.28,0.14,0.51,0.37,0.8,0.48c1.13,0.27,2.28,0.17,3.42,0.11c0.25-0.07,0.48-0.17,0.71-0.29
		c0.04-0.05,0.08-0.09,0.13-0.14c1.55,0.19,3.11,0.17,4.67,0.12c3.24,0.2,6.48,0.39,9.72,0.59c0.05,0.11,0.12,0.21,0.23,0.28
		c1.03,0.32,2.14,0.27,3.13,0.72c0.29,0.05,0.57,0.04,0.86-0.03c0.13-0.08,0.24-0.11,0.35-0.13c0.12,0.04,0.24,0.06,0.37,0.07
		c0.18,0.09,0.33,0.27,0.47,0.46c0.25,0.23,0.56,0.37,0.88,0.45c3.17,0.82,6.23,1.97,9.16,3.43c0.41,0.2,0.83,0.3,1.27,0.14
		c0.13,0.79,0.65,1,1.42,0.85c0.03-0.01,0.05-0.03,0.07-0.05c0.06,0.04,0.12,0.08,0.18,0.13c-0.01,0.08-0.02,0.16-0.03,0.24
		c0.15,0.28,0.39,0.39,0.69,0.41c0.06-0.01,0.13-0.03,0.19-0.04c0.45,0.38,0.89,0.75,1.34,1.13c0.1,0.25,0.15,0.52,0.28,0.76
		c0.24,0.34,0.48,0.7,0.88,0.73c1.27,2.12,3.18,3.72,4.63,5.69c0.13,0.17,0.35,0.26,0.59,0.28c-0.11,1.11,0.27,1.79,1.28,2.27
		c-0.14,1.77,0.76,3.17,1.63,4.59c0.2,0.18,0.41,0.36,0.6,0.55c0.37,1.31,0.75,2.63,1.12,3.94c-0.05,0.03-0.09,0.07-0.14,0.11
		c-0.54,0.75-0.24,1.58-0.1,2.34c0.32,1.74,0.19,3.58,1.08,5.2c0.08,0.06,0.19,0.09,0.29,0.13c-0.88,1.38-0.69,2.78-0.07,4.2
		c0.07,0.06,0.13,0.11,0.2,0.16c-0.15,0.21-0.21,0.46-0.22,0.73c0.32,1.37,0.21,2.8,0.49,4.17c0.01,0.2,0.02,0.41,0.04,0.61
		c-0.34,0.49-0.13,1.1-0.18,1.65c0.03,0.22,0.12,0.41,0.27,0.56c-0.06,0.05-0.12,0.11-0.18,0.17c-0.46,1.33-0.44,2.66-0.03,4
		c0.09,0.21,0.25,0.22,0.4,0.21c-0.01,0.01-0.02,0.02-0.02,0.03c-0.12,0.11-0.19,0.24-0.2,0.41c0.08,0.35,0.15,0.69,0.21,1.04
		c0,1.25,0.01,2.49,0.01,3.74c0.01,0.57,0.01,1.14,0.02,1.71c0,0,0,0,0,0c0,0,0,0,0,0c-0.01,3.73-0.03,7.46-0.03,11.2
		c0,8,0.01,16,0.02,24c-0.04,0.08-0.09,0.16-0.14,0.24c-0.01,1.24-0.24,2.46-0.48,3.67c-0.02,0.53,0.05,1.03,0.47,1.41
		c0.04,0,0.08,0,0.12,0c-0.28,0.25-0.27,0.54-0.1,0.86c0.04,0.01,0.08,0.02,0.12,0.02c0,0.18,0,0.36,0,0.55
		c0.01,0.01,0.01,0.01,0.02,0.02c-0.08,0.01-0.17,0.02-0.26,0.05c-0.48,0.5-0.4,1.14-0.42,1.75c-0.05,1.8-0.08,3.6-0.22,5.4
		c-0.14,1.72-0.38,3.5,0.25,5.21c0.08,0.08,0.18,0.19,0.27,0.23c-0.76,0.43-0.8,1.22-0.81,1.94c-0.03,2.72-0.41,5.4-0.68,8.09
		c0.16,1.19-0.01,2.37-0.13,3.54c-0.13,0.52-0.26,1.04-0.41,1.56c-0.11,0.14-0.15,0.34-0.15,0.53c-0.23,0.8-0.48,1.59-0.74,2.38
		c-0.5,0.83-0.97,1.7-0.99,2.71c-0.09,0.24-0.19,0.48-0.29,0.72c-0.11,0.04-0.21,0.11-0.3,0.2c-0.09,0.11-0.16,0.24-0.2,0.38
		c-0.11,0.29-0.19,0.59-0.25,0.89C164.56,155.73,162.9,157.99,161.02,160.09z M146.24,2.45L146.24,2.45L146.24,2.45L146.24,2.45z
		 M81.71,0.12C81.71,0.12,81.71,0.12,81.71,0.12C81.71,0.12,81.71,0.12,81.71,0.12C81.71,0.12,81.71,0.12,81.71,0.12z M77.56,0.18
		C77.56,0.18,77.56,0.18,77.56,0.18L77.56,0.18C77.56,0.18,77.56,0.18,77.56,0.18z"/>
	<path d="M141.85,88.97C141.85,88.97,141.85,88.97,141.85,88.97C141.85,88.97,141.85,88.97,141.85,88.97
		c-0.16-1.65-0.28-3.31-0.82-4.89c-0.29-2.32-1.01-4.51-1.91-6.64c-0.55-1.85-1.3-3.62-2.33-5.26c0,0,0,0,0,0
		c-0.74-1.75-1.67-3.38-2.86-4.86l0,0v0c-0.75-1.32-1.62-2.55-2.71-3.62c-0.25-0.68-0.77-1.13-1.32-1.55
		c-0.21-0.42-0.44-0.82-0.93-0.97c-0.19-0.21-0.38-0.41-0.57-0.62c-1.3-1.63-2.87-2.95-4.54-4.18c-2.09-1.78-4.35-3.31-6.83-4.51h0
		c-0.34-0.28-0.68-0.53-1.14-0.57c-1.55-1.02-3.25-1.69-5-2.24c-2.85-1.15-5.76-2.04-8.83-2.35l0,0l0,0
		c-0.13-0.06-0.25-0.15-0.39-0.17c-6.51-1.07-12.98-0.82-19.36,0.79c-5.64,1.42-10.95,3.65-15.66,7.15
		c-0.34,0.12-0.66,0.26-0.85,0.59l0,0c0,0,0,0,0,0.01c0,0,0,0,0-0.01c-3.31,2.21-6.19,4.88-8.64,8.02c-1.52,1.5-2.73,3.24-3.77,5.09
		l0,0c0,0,0,0,0,0c-0.51,0.51-0.85,1.12-1.1,1.8c-0.34,0.3-0.51,0.7-0.64,1.13c-0.32,0.31-0.51,0.69-0.58,1.13c0,0,0,0,0,0
		l-0.01,0.01c-0.26,0.25-0.42,0.56-0.47,0.93c-0.22,0.22-0.37,0.46-0.34,0.78l0,0l0,0c-0.69,1.06-1.15,2.21-1.44,3.43l0,0l0,0
		c-0.59,1.08-0.93,2.24-1.14,3.45c-0.29,0.34-0.3,0.74-0.29,1.15c-0.41,0.74-0.54,1.53-0.55,2.36l0,0l0,0
		c-0.44,1.1-0.59,2.25-0.58,3.43l0,0c-0.41,0.93-0.3,1.93-0.32,2.9v0c-0.06,0.06-0.06,0.12,0,0.18c0,0,0,0,0,0
		c-0.15,0.31-0.23,0.63-0.11,0.97c-0.14,1.71-0.17,3.43,0.04,5.14c0.04,0.39,0.08,0.78,0.12,1.17l0,0c0.01,0.29,0.03,0.58,0.04,0.86
		c-0.07,0.78,0.11,1.54,0.32,2.28c-0.06,0.5,0,0.99,0.24,1.45c-0.05,0.8,0.25,1.54,0.45,2.29c0.05,0.51,0.06,1.03,0.38,1.46
		c0.27,1.52,0.68,2.99,1.41,4.35c0,0,0,0,0,0c0,0,0,0,0,0c-0.03,0.09-0.01,0.16,0.06,0.23c0,0,0,0,0,0c0,0,0,0,0,0
		c-0.01,0.46,0.2,0.83,0.47,1.19v0c0.24,0.96,0.63,1.85,1.19,2.66c0,0,0,0,0,0c0.39,1.23,1.05,2.31,1.76,3.37v0
		c0.32,0.96,0.97,1.72,1.53,2.53c0.73,1.21,1.53,2.38,2.52,3.4c1.4,1.95,3.04,3.68,4.87,5.23v0l0.02,0.01
		c0.37,0.34,0.74,0.67,1.11,1.01l0,0c0,0,0,0,0,0c0.01,0.11,0.07,0.17,0.18,0.17c0,0,0,0,0,0c0.93,0.86,1.84,1.74,2.98,2.32l0,0
		c1.83,1.62,3.96,2.79,6.11,3.9c3.89,2.03,7.95,3.64,12.31,4.35c0,0,0,0,0,0c0,0,0,0,0,0c2.13,0.62,4.3,0.93,6.52,0.92c0,0,0,0,0,0
		l0,0c2.62,0.37,5.23,0.33,7.85-0.05c2.36-0.02,4.65-0.46,6.9-1.12l0,0c1.59-0.22,3.09-0.74,4.59-1.28c0,0,0,0,0,0c0,0,0,0,0,0
		c1.29-0.44,2.62-0.79,3.73-1.63c1.39-0.26,2.55-1.02,3.73-1.75c0.36-0.06,0.65-0.24,0.88-0.52c0,0,0,0,0,0
		c0.85-0.35,1.65-0.79,2.33-1.42c0,0,0,0,0,0c0,0,0,0,0,0c1.18-0.61,2.24-1.39,3.21-2.28c0.46-0.37,0.92-0.75,1.38-1.12
		c0.56-0.3,1-0.73,1.37-1.24v0c1.35-1.11,2.61-2.32,3.66-3.72h0c0,0,0,0,0,0c0.17-0.17,0.33-0.35,0.5-0.52h0
		c0.43-0.39,0.84-0.8,1.09-1.35c0,0,0,0,0,0c0.69-0.69,1.29-1.46,1.72-2.34l0,0c0.28-0.12,0.28-0.37,0.27-0.62l0,0
		c1.64-1.63,2.58-3.7,3.53-5.75c0.2-0.11,0.24-0.29,0.22-0.49c0.53-0.74,0.87-1.56,1.11-2.43c0.3-0.44,0.54-0.89,0.57-1.43
		c0,0,0,0,0,0l0,0l0,0c0.59-1.17,0.96-2.42,1.22-3.7c0.28-0.65,0.53-1.3,0.51-2.03c0.37-0.72,0.4-1.52,0.54-2.3
		c0.65-3.31,1.02-6.65,0.81-10.03C142.21,91.64,142.07,90.3,141.85,88.97z M121.73,108.73c0,0.02,0.01,0.04,0.02,0.06
		c-1.09,0.57-1.99,2.01-2.05,3.28c-0.03,0.01-0.06,0.02-0.09,0.03c-0.85,0.56-1.75,1.09-1.54,2.31c-1.73,0.42-2.45,1.97-3.53,3.12
		c-0.01,0.04-0.02,0.08-0.02,0.12c-0.67-0.04-0.9,0.44-1,1.08c-0.01,0-0.01-0.01-0.02-0.01c-1.44,0.06-2.38,0.79-2.87,2.13
		c0.01,0.02,0.02,0.05,0.03,0.07c-0.46,0.28-0.92,0.55-1.38,0.83c-0.15-0.08-0.32-0.13-0.52-0.14c-0.72,0.13-1.45,0.25-1.76,0.95
		c-0.07-0.01-0.15-0.02-0.22-0.04c-0.65,0.11-1.35,0.15-1.58,0.86c-0.12-0.01-0.24-0.01-0.35,0.02c-0.47,0.19-0.97,0.21-1.46,0.27
		c-1.06,0.2-2.1,0.47-3.14,0.75c-0.57,0.15-1.25,0.15-1.51,0.86c0,0.04,0.01,0.07,0.02,0.1c0,0,0,0,0,0
		c-1.55-1.11-3.1-0.18-4.64,0.02c-0.13,0.12-0.21,0.23-0.26,0.34c-0.67-0.04-1.33-0.1-2-0.17c-0.42-0.1-0.9-0.15-1.36-0.15
		c-1.43-0.17-2.85-0.39-4.27-0.64c-2.39-0.76-4.72-1.67-7-2.72c0-0.03,0-0.07,0-0.1c-0.04-0.06-0.09-0.11-0.15-0.16
		c0.01-0.42-0.3-0.67-0.62-0.85c-1.44-0.86-2.72-1.96-4.21-2.72c0,0,0,0,0,0c-0.05-0.14-0.12-0.26-0.23-0.35
		c-1.13-0.97-2.03-2.22-3.36-2.96c0.02-0.32-0.15-0.62-0.36-0.87c-0.63-0.74-1.13-1.61-2-2.14c-0.03-0.02-0.06-0.03-0.09-0.05
		c-0.19-1.65-1.22-2.86-2.4-3.98c-0.02-0.02-0.06-0.02-0.1-0.01c0.14-0.57,0.04-1.01-0.72-1.1c0,0-0.01,0-0.01,0
		c0.71-1.4-0.16-2.51-0.81-3.65c-0.18-0.14-0.37-0.27-0.57-0.39c-0.18-0.67-0.37-1.35-0.55-2.02c0.06-0.13,0.12-0.26,0.15-0.4
		c0-0.14-0.03-0.28-0.09-0.4c0-0.01-0.01-0.01-0.01-0.02c0.79-1.46,0.25-2.85-0.44-4.22c-0.07-0.05-0.15-0.09-0.22-0.13
		c0.03,0,0.05,0.01,0.08,0.01c0.81-1.52,0.54-3.15,0.47-4.76c-0.01-0.15-0.16-0.26-0.31-0.35c0.05-0.01,0.11-0.04,0.16-0.08
		c0.6-0.97,0.72-2.08,0.96-3.16c0.07-0.29,0.07-0.62-0.11-0.88c0.03-0.02,0.06-0.04,0.09-0.07c0.54-0.76,0.99-1.54,0.48-2.5
		c-0.01-0.01-0.01-0.01-0.02-0.02c0.5-0.22,0.76-0.53,0.6-1c1.27-1.36,1.84-3.12,2.63-4.75c0.06-0.13,0.08-0.26,0.05-0.4
		c0.04-0.03,0.08-0.06,0.13-0.08c0.58-0.58,1.28-1.11,0.84-2.06c2.08-2.53,4.28-4.95,6.94-6.89c0.05,0.01,0.11,0.02,0.16,0.04
		c0.49-0.06,0.87-0.25,1.02-0.76c0-0.03,0-0.05,0-0.08c2.44-1.51,5.03-2.71,7.7-3.74c1.5-0.35,3-0.7,4.5-1.05
		c0.14-0.02,0.29-0.06,0.44-0.1c3.9-0.46,7.77-0.3,11.61,0.43c0.29,0.11,0.62,0.18,0.8,0.42c0.14,0.05,0.29,0.08,0.45,0.09
		c0.16,0.02,0.31,0,0.46-0.04c1.63,0.59,3.27,1.17,4.9,1.76c0.21,0.2,0.44,0.36,0.72,0.42c0,0.06,0,0.12,0.02,0.18
		c1.36,1.69,3.38,2.42,5.11,3.58c0.33,0.12,0.68,0.2,1.01,0.31c0.88,0.81,1.75,1.63,2.63,2.44c0.05,0.11,0.14,0.23,0.19,0.34
		c0.26,0.41,0.42,0.87,0.69,1.28c0.21,0.26,0.48,0.44,0.8,0.5c-0.11,0.6,0.24,0.98,0.77,1.26c0.15,0.03,0.28,0.05,0.4,0.07
		c0.44,0.67,0.88,1.34,1.33,2.02c-0.05,0.05-0.08,0.11-0.11,0.18c0.24,1.77,0.81,3.35,2.27,4.47c0,0,0,0,0,0
		c-0.12,2.35,0.72,4.46,1.58,6.57c0.04,0.1,0.15,0.12,0.27,0.13c-0.03,0.01-0.07,0.03-0.1,0.04c-0.44,0.65-0.38,1.38-0.27,2.08
		c0.28,1.76,0.29,3.51,0.04,5.27c-0.07,0.49-0.03,0.95,0.24,1.38c0.06,0.08,0.12,0.15,0.2,0.21c-1.15,0.93-0.93,2.22-0.85,3.48
		c0.07,0.07,0.13,0.14,0.19,0.22c-1.56,1.25-1.62,3.08-1.84,4.85c0,0.01,0.01,0.02,0.01,0.03
		C121.81,107.1,121.74,107.9,121.73,108.73z M100.29,62.54C100.29,62.54,100.29,62.54,100.29,62.54
		C100.29,62.54,100.29,62.54,100.29,62.54C100.29,62.54,100.29,62.54,100.29,62.54z"/>
	<path d="M155.1,42.13c-0.08-1.25-0.53-2.38-1.16-3.44l0,0l0,0c-2.54-4.9-8.5-7.21-13.48-5.23c-0.55,0.02-1.01,0.26-1.42,0.62
		c-0.39,0.06-0.72,0.22-0.96,0.54c0,0,0,0,0,0v0c-1.03,0.54-1.88,1.27-2.53,2.24c0,0,0,0,0,0c0,0,0,0,0,0
		c-0.71,0.55-1.12,1.29-1.4,2.12c-0.41,0.49-0.56,1.08-0.65,1.69l0,0c-0.71,1.84-0.75,3.71-0.24,5.61c0,0,0,0,0,0
		c-0.04,0.8,0.27,1.5,0.64,2.18c2.28,5.71,9.67,8.46,15.09,5.59c0.85-0.45,1.61-1.09,2.41-1.65c0,0,0,0,0,0h0
		c1.59-1.25,2.67-2.83,3.21-4.79C155.36,45.83,155.53,44.01,155.1,42.13L155.1,42.13z"/>
</g>
</svg>
