<?xml version="1.0" encoding="utf-8"?>
<!-- Generator: Adobe Illustrator 24.0.0, SVG Export Plug-In . SVG Version: 6.00 Build 0)  -->
<svg version="1.1" id="圖層_1" xmlns="http://www.w3.org/2000/svg" xmlns:xlink="http://www.w3.org/1999/xlink" x="0px" y="0px"
	 viewBox="0 0 188.76 188.22" style="enable-background:new 0 0 188.76 188.22;" xml:space="preserve">
<style type="text/css">
	.st0{opacity:0.2;}
</style>
<g>
	<g>
		<path d="M93.82,15c27.84,0,46.26,12.71,56.81,23.37c12.98,13.11,21.51,30.84,22.84,47.42c2.35,29.47-9.39,49.17-19.64,60.5
			c-15.01,16.58-36.62,26.38-59.32,26.92c-21.26-0.66-40.27-8.32-54.99-22.16c-13.97-13.13-22.55-30.63-24.16-49.29
			c-2.41-27.87,8.23-46.92,17.58-57.99C46.43,27.81,66.81,16.9,86.14,15.32C88.72,15.11,91.3,15,93.82,15 M93.82,0
			c-2.91,0-5.88,0.12-8.9,0.37C45.28,3.62-5.02,40.21,0.41,103.06c3.89,45.03,41.64,83.72,94.04,85.16
			c50.65-0.99,98.9-41.89,93.98-103.62C185.34,45.99,150.69,0,93.82,0L93.82,0z"/>
	</g>
	<g>
		<path d="M122.27,129.36c16.98,1.48,24.24-5.56,28.02-16.92c-6.35,0.05-11.9-0.68-17.44,3.86c-6.46,5.29-13.87,1.94-16.77-5.5
			c-1.49-3.83-0.63-4.53,3.04-4.48c9.65,0.13,19.31,0.05,28.97,0.04c1.57,0,3.25,0.56,3.3-2.25c0.34-20.91-12.31-31.43-32.52-27.06
			c-15.04,3.25-21.79,19.73-17.94,35.02C103.61,122.7,113.35,128.58,122.27,129.36z M116.37,93.52c2.2-3.96,5.31-6.29,10.23-6.23
			c4.57,0.06,7.34,2.2,9.18,6.03c1.3,2.71,1,4.37-2.64,4.08c-2.47-0.2-4.98-0.04-7.47-0.04c-2.32,0-4.68-0.22-6.97,0.05
			C114.7,97.89,115.03,95.91,116.37,93.52z"/>
		<path d="M114.99,70.48c7.15-0.29,14.33-0.31,21.47,0c3.52,0.16,3.85-1.23,4-4.21c0.18-3.54-1.24-4.13-4.26-3.92
			c-3.31,0.23-6.66,0.05-9.99,0.05c-3.66,0-7.35,0.27-10.98-0.08c-3.53-0.34-3.99,1.19-3.98,4.2
			C111.25,69.39,111.68,70.62,114.99,70.48z"/>
		<path d="M39.73,128.38c13.57-0.57,27.19,1.09,40.71-1.04c10.81-1.7,18.55-14.46,15.45-25.02c-1.71-5.82-6.11-9.11-10.65-12.4
			c1.61-1.65,3.82-2.18,5.05-4.11c3.69-5.84,4.41-11.9,1.11-18.02c-3.19-5.91-8.46-9.16-15.15-9.33
			c-11.95-0.31-23.93,0.39-35.85-0.9c-2.72-0.3-3.03,1.08-3.03,3.22c0.03,21.63,0.03,43.27-0.01,64.9
			C37.36,127.42,37.54,128.47,39.73,128.38z M58.4,70.35c4.7,0.65,9.52-0.76,14.24,0.95c4.32,1.57,5.15,4.84,4.65,8.64
			c-0.5,3.82-3.05,5.58-6.92,5.45c-2.33-0.07-4.66-0.01-6.99-0.01c-10.01,0-9.77-0.01-10.11-10C53.12,71.19,54.25,69.77,58.4,70.35z
			 M54.13,98.8c1.84-1.71,6.55-0.35,9.99-0.35c0-0.03,0-0.05,0-0.08c2.82,0,5.66-0.17,8.47,0.04c4.91,0.37,7.67,3.26,7.77,7.78
			c0.11,4.76-3.05,8.85-7.63,9.09c-5.63,0.3-11.29-0.01-16.93,0.12c-2.06,0.04-2.6-0.78-2.44-2.63c0.1-1.15-0.04-2.33,0.03-3.48
			C53.61,105.68,51.84,100.94,54.13,98.8z"/>
	</g>
</g>
</svg>
