<?xml version="1.0" encoding="utf-8"?>
<!-- Generator: Adobe Illustrator 24.0.0, SVG Export Plug-In . SVG Version: 6.00 Build 0)  -->
<svg version="1.1" id="圖層_1" xmlns="http://www.w3.org/2000/svg" xmlns:xlink="http://www.w3.org/1999/xlink" x="0px" y="0px"
	 viewBox="0 0 35.65 36.35" style="enable-background:new 0 0 35.65 36.35;" xml:space="preserve">
<style type="text/css">
	.st0{opacity:0.2;}
	.st1{fill:#E5E5E5;}
</style>
<g>
	<path d="M24.88,8.21l2.33-4.43l-2.83-2.55h-2.58h-7.68h-2.5h-1.56H8.12c-2.08,0-2,0.55-1.33,4.21c0.25,0.89,0.75,1.33,1.33,1.33
		h13.26c0.33,0,0.67,0.44,0.92,1.11c0.17,0.66,0.67,1,1.17,1.11C23.96,8.98,24.54,8.76,24.88,8.21z"/>
</g>
<g>
	<path d="M6.44,1.28L1.67,2.81l0.23,3.8l1.84,1.81l22.1,21.72l1.78,1.75l1.11,1.1l1.38,1.36c1.49,1.46,1.81,1.01,3.9-2.07
		c0.44-0.81,0.4-1.47-0.02-1.88L7.92,4.76C7.69,4.53,7.76,3.98,8.05,3.33c0.35-0.59,0.22-1.18-0.06-1.61
		C7.64,1.37,7.06,1.12,6.44,1.28z"/>
</g>
</svg>
