<?xml version="1.0" encoding="utf-8"?>
<!-- Generator: Adobe Illustrator 23.1.0, SVG Export Plug-In . SVG Version: 6.00 Build 0)  -->
<svg version="1.1" id="圖層_1" xmlns="http://www.w3.org/2000/svg" xmlns:xlink="http://www.w3.org/1999/xlink" x="0px" y="0px"
	 viewBox="0 0 102.94 60" style="enable-background:new 0 0 102.94 60;" xml:space="preserve">
<g>
	<path d="M101.29,29.06l0.18,29.18l0,0.18l-0.18,0c-16.49,0.12-32.98,0.1-49.47,0.15L2.35,58.68l-0.44,0l0-0.44L1.85,30L1.92,1.76
		l0-0.44l0.44,0l49.47,0.11l24.74,0.05c8.25,0.01,16.49,0.04,24.74,0.1l0.17,0l0,0.17L101.29,29.06l-0.17-27.29l0.17,0.17
		C93.05,2,84.8,2.04,76.56,2.04L51.82,2.1L2.35,2.2l0.44-0.44L2.85,30L2.79,58.24L2.35,57.8l49.47,0.11
		c16.49,0.06,32.98,0.03,49.47,0.15l-0.18,0.18L101.29,29.06z"/>
</g>
</svg>
