<?xml version="1.0" encoding="utf-8"?>
<!-- Generator: Adobe Illustrator 24.0.0, SVG Export Plug-In . SVG Version: 6.00 Build 0)  -->
<svg version="1.1" id="圖層_1" xmlns="http://www.w3.org/2000/svg" xmlns:xlink="http://www.w3.org/1999/xlink" x="0px" y="0px"
	 viewBox="0 0 23.12 46.24" style="enable-background:new 0 0 23.12 46.24;" xml:space="preserve">
<style type="text/css">
	.st0{opacity:0.2;}
	.st1{fill:#E5E5E5;}
</style>
<g>
	<path d="M7.94,3.24L3.51,0.91L0.96,3.74v2.58V37.3v2.5v1.56v1.94c0,2.08,0.55,2,4.21,1.33c0.89-0.25,1.33-0.75,1.33-1.33V6.74
		c0-0.33,0.44-0.67,1.11-0.92c0.66-0.17,1-0.67,1.11-1.17C8.71,4.15,8.49,3.57,7.94,3.24z"/>
</g>
<g>
	<path d="M21.44,3.24l-4.43-2.33l-2.55,2.83v2.58V37.3v2.5v1.56v1.94c0,2.08,0.55,2,4.21,1.33c0.89-0.25,1.33-0.75,1.33-1.33V6.74
		c0-0.33,0.44-0.67,1.11-0.92c0.66-0.17,1-0.67,1.11-1.17C22.22,4.15,22,3.57,21.44,3.24z"/>
</g>
</svg>
