<?xml version="1.0" encoding="utf-8"?>
<!-- Generator: Adobe Illustrator 24.0.0, SVG Export Plug-In . SVG Version: 6.00 Build 0)  -->
<svg version="1.1" id="圖層_1" xmlns="http://www.w3.org/2000/svg" xmlns:xlink="http://www.w3.org/1999/xlink" x="0px" y="0px"
	 viewBox="0 0 23.12 46.24" style="enable-background:new 0 0 23.12 46.24;" xml:space="preserve">
<style type="text/css">
	.st0{opacity:0.2;}
	.st1{fill:#E5E5E5;}
</style>
<g>
	<path class="st1" d="M10.16,22.33l-5,0.05l-0.9,3.7l1.23,2.27l5.52,10.24l1.19,2.2l0.74,1.38l0.92,1.7
		c0.99,1.83,1.44,1.5,4.33-0.82c0.66-0.64,0.81-1.29,0.54-1.8l-8.17-15.15c-0.16-0.29,0.07-0.8,0.54-1.33
		c0.51-0.46,0.56-1.06,0.42-1.55C11.28,22.77,10.81,22.36,10.16,22.33z"/>
</g>
<g>
	<path class="st1" d="M10.16,23.62l-5-0.05l-0.9-3.7l1.23-2.27l5.52-10.24l1.19-2.2l0.74-1.38l0.92-1.7
		c0.99-1.83,1.44-1.5,4.33,0.82c0.66,0.64,0.81,1.29,0.54,1.8l-8.17,15.15c-0.16,0.29,0.07,0.8,0.54,1.33
		c0.51,0.46,0.56,1.06,0.42,1.55C11.28,23.18,10.81,23.59,10.16,23.62z"/>
</g>
</svg>
