<?xml version="1.0" encoding="utf-8"?>
<!-- Generator: Adobe Illustrator 24.0.0, SVG Export Plug-In . SVG Version: 6.00 Build 0)  -->
<svg version="1.1" id="圖層_1" xmlns="http://www.w3.org/2000/svg" xmlns:xlink="http://www.w3.org/1999/xlink" x="0px" y="0px"
	 viewBox="0 0 227.71 105.88" style="enable-background:new 0 0 227.71 105.88;" xml:space="preserve">
<style type="text/css">
	.st0{opacity:0.2;}
</style>
<g>
	<path d="M87.3,62.31l6.22,20.71l16.44-0.72l7.96-7.82l35.88-35.24l7.7-7.57l4.82-4.73l5.97-5.86c6.42-6.31,4.49-7.76-8.63-17.01
		c-3.45-1.98-6.34-1.83-8.13-0.06l-53.08,52.14c-1.03,1.01-3.39,0.65-6.18-0.64c-2.52-1.54-5.07-1.05-6.95,0.12
		C87.77,57.14,86.65,59.59,87.3,62.31z"/>
</g>
<g>
	<path d="M88.55,43.5l-6.22-20.71l-16.44,0.72l-7.96,7.82L22.04,66.57l-7.7,7.57l-4.82,4.73l-5.97,5.86
		c-6.42,6.31-4.49,7.76,8.63,17.01c3.45,1.98,6.34,1.83,8.13,0.06L73.4,49.66c1.03-1.01,3.39-0.65,6.18,0.64
		c2.52,1.54,5.07,1.05,6.95-0.12C88.07,48.67,89.2,46.22,88.55,43.5z"/>
</g>
<g>
	<path d="M205.65,59.27l-6.22-20.71l-16.44,0.72l-7.96,7.82l-19.7,19.54l-7.7,7.57l-4.82,4.73l-5.97,5.86
		c-6.42,6.31-4.49,7.76,8.63,17.01c3.45,1.98,6.34,1.83,8.13,0.06l36.91-36.44c1.03-1.01,3.39-0.65,6.18,0.64
		c2.52,1.54,5.07,1.05,6.95-0.12C205.17,64.43,206.3,61.98,205.65,59.27z"/>
</g>
<g>
	<path d="M227.52,38.11l-6.22-20.71l-16.44,0.72l-7.96,7.82l15.48,18.33c1.03-1.01,3.39-0.65,6.18,0.64
		c2.52,1.54,5.07,1.05,6.95-0.12C227.04,43.27,228.17,40.82,227.52,38.11z"/>
</g>
<path d="M121.38,59.25V37.41L91.69,66.57l-7.7,7.57l-4.82,4.73l-5.97,5.86c-6.42,6.31-4.49,7.76,8.63,17.01
	c3.45,1.98,6.34,1.83,8.13,0.06l43.32-42.54H121.38z"/>
</svg>
