<?xml version="1.0" encoding="utf-8"?>
<!-- Generator: Adobe Illustrator 24.0.0, SVG Export Plug-In . SVG Version: 6.00 Build 0)  -->
<svg version="1.1" id="圖層_1" xmlns="http://www.w3.org/2000/svg" xmlns:xlink="http://www.w3.org/1999/xlink" x="0px" y="0px"
	 viewBox="0 0 419.93 105.88" style="enable-background:new 0 0 419.93 105.88;" xml:space="preserve">
<style type="text/css">
	.st0{opacity:0.7;}
	.st1{opacity:0.2;}
	.st2{fill:#040000;}
</style>
<g>
	<g>
		<path d="M37.34,15.07l-12.8-4.55l-7.36,5.53v5.04V81.6v4.88v3.05v3.78c0,4.07,1.6,3.9,12.16,2.6c2.56-0.49,3.84-1.46,3.84-2.6
			V21.91c0-0.65,1.28-1.3,3.2-1.79c1.92-0.33,2.88-1.3,3.2-2.28C39.58,16.86,38.95,15.73,37.34,15.07z"/>
	</g>
</g>
<g>
	<g>
		<path d="M326.34,15.07l-12.8-4.55l-7.36,5.53v5.04V81.6v4.88v3.05v3.78c0,4.07,1.6,3.9,12.16,2.6c2.56-0.49,3.84-1.46,3.84-2.6
			V21.91c0-0.65,1.28-1.3,3.2-1.79c1.92-0.33,2.88-1.3,3.2-2.28C328.58,16.86,327.94,15.73,326.34,15.07z"/>
	</g>
</g>
<g>
	<g>
		<path d="M179.59,92.18l-12.8,4.55l-7.36-5.53v-5.04V25.65v-4.88v-3.05v-3.78c0-4.07,1.6-3.9,12.16-2.6
			c2.56,0.49,3.84,1.46,3.84,2.6v71.41c0,0.65,1.28,1.3,3.2,1.79c1.92,0.33,2.88,1.3,3.2,2.28
			C181.83,90.39,181.19,91.53,179.59,92.18z"/>
	</g>
</g>
<g>
	<g>
		<path d="M148.57,62.85l-12.8-1.89l-7.36,2.29v2.09v25.11v2.02v1.27v1.57c0,1.69,1.6,1.62,12.16,1.08c2.56-0.2,3.84-0.61,3.84-1.08
			V65.69c0-0.27,1.28-0.54,3.2-0.74c1.92-0.13,2.88-0.54,3.2-0.94C150.81,63.6,150.17,63.12,148.57,62.85z"/>
	</g>
</g>
<g>
	<g>
		<path d="M353.42,62.85l-12.8-1.89l-7.36,2.29v2.09v25.11v2.02v1.27v1.57c0,1.69,1.6,1.62,12.16,1.08c2.56-0.2,3.84-0.61,3.84-1.08
			V65.69c0-0.27,1.28-0.54,3.2-0.74c1.92-0.13,2.88-0.54,3.2-0.94C355.66,63.6,355.02,63.12,353.42,62.85z"/>
	</g>
</g>
<g>
	<g>
		<path d="M353.42,46.18l-12.8-1.89l-7.36,2.29v2.09v2.22v2.02v1.27v1.57c0,1.69,1.6,1.62,12.16,1.08c2.56-0.2,3.84-0.61,3.84-1.08
			v-6.74c0-0.27,1.28-0.54,3.2-0.74c1.92-0.13,2.88-0.54,3.2-0.94C355.66,46.93,355.02,46.45,353.42,46.18z"/>
	</g>
</g>
<g>
	<g>
		<g>
			<path d="M92.96,62.85l-12.8-1.89l-7.36,2.29v2.09v25.11v2.02v1.27v1.57c0,1.69,1.6,1.62,12.16,1.08c2.56-0.2,3.84-0.61,3.84-1.08
				V65.69c0-0.27,1.28-0.54,3.2-0.74c1.92-0.13,2.88-0.54,3.2-0.94C95.2,63.6,94.56,63.12,92.96,62.85z"/>
		</g>
	</g>
	<g>
		<g>
			<path d="M93.77,94.85l12.8,1.89l7.36-2.29v-2.09V67.24v-2.02v-1.27v-1.57c0-1.69-1.6-1.62-12.16-1.08
				c-2.56,0.2-3.84,0.61-3.84,1.08v29.63c0,0.27-1.28,0.54-3.2,0.74c-1.92,0.13-2.88,0.54-3.2,0.94
				C91.53,94.11,92.17,94.58,93.77,94.85z"/>
		</g>
	</g>
</g>
<g>
	<g>
		<g>
			<path d="M271.97,62.85l-12.8-1.89l-7.36,2.29v2.09v25.11v2.02v1.27v1.57c0,1.69,1.6,1.62,12.16,1.08
				c2.56-0.2,3.84-0.61,3.84-1.08V65.69c0-0.27,1.28-0.54,3.2-0.74c1.92-0.13,2.88-0.54,3.2-0.94
				C274.21,63.6,273.58,63.12,271.97,62.85z"/>
		</g>
	</g>
	<g>
		<g>
			<path d="M272.79,94.85l12.8,1.89l7.36-2.29v-2.09V67.24v-2.02v-1.27v-1.57c0-1.69-1.6-1.62-12.16-1.08
				c-2.56,0.2-3.84,0.61-3.84,1.08v29.63c0,0.27-1.28,0.54-3.2,0.74c-1.92,0.13-2.88,0.54-3.2,0.94
				C270.55,94.11,271.19,94.58,272.79,94.85z"/>
		</g>
	</g>
</g>
<g>
	<g>
		<g>
			<path d="M385.01,62.85l-12.8-1.89l-7.36,2.29v2.09v25.11v2.02v1.27v1.57c0,1.69,1.6,1.62,12.16,1.08
				c2.56-0.2,3.84-0.61,3.84-1.08V65.69c0-0.27,1.28-0.54,3.2-0.74c1.92-0.13,2.88-0.54,3.2-0.94
				C387.25,63.6,386.61,63.12,385.01,62.85z"/>
		</g>
	</g>
	<g>
		<g>
			<path d="M385.82,94.85l12.8,1.89l7.36-2.29v-2.09V67.24v-2.02v-1.27v-1.57c0-1.69-1.6-1.62-12.16-1.08
				c-2.56,0.2-3.84,0.61-3.84,1.08v29.63c0,0.27-1.28,0.54-3.2,0.74c-1.92,0.13-2.88,0.54-3.2,0.94
				C383.58,94.11,384.22,94.58,385.82,94.85z"/>
		</g>
	</g>
</g>
<g>
	<path class="st2" d="M92.72,42.26c0.65-1.86,0.8-3.89,0.3-5.89c-0.5-2-1.67-3.93-3.3-5.57c-0.81-0.83-1.76-1.55-2.71-2.24
		c-0.91-0.57-1.82-1.14-2.77-1.67c-3.85-2.09-8.24-3.58-12.72-4.46c-2.94-0.58-5.9-0.89-8.84-1.01l0-0.02c0,0-22.21-1.71-23.06,6.53
		c-0.82,8,12.09,6.05,12.09,6.05s17.28-3.3,25.45,4.16c1.01,1.4,1.36,3.07,0.82,4.82c-0.6,1.94-3.18,3.57-5.65,5.09
		c-4.94,3.08-11.81,5.1-20.55,5.22c3.41,1.86,7.9,2.93,12.62,3.1c2.35,0.06,4.76-0.07,7.13-0.42c2.36-0.36,4.67-0.94,6.87-1.71
		c2.2-0.76,4.28-1.72,6.15-2.88c1.9-1.14,3.56-2.49,5-4C90.96,45.85,92.04,44.13,92.72,42.26z"/>
</g>
<g>
	<path class="st2" d="M189.05,49.02h-39.32c-3.86,0-6.99-2.11-6.99-4.72s3.13-4.72,6.99-4.72h39.32c3.86,0,6.99,2.11,6.99,4.72
		S192.91,49.02,189.05,49.02z"/>
</g>
<g>
	<g>
		<path d="M236.35,15.07l-12.8-4.55l-7.36,5.53v5.04V81.6v4.88v3.05v3.78c0,4.07,1.6,3.9,12.16,2.6c2.56-0.49,3.84-1.46,3.84-2.6
			V21.91c0-0.65,1.28-1.3,3.2-1.79c1.92-0.33,2.88-1.3,3.2-2.28C238.59,16.86,237.95,15.73,236.35,15.07z"/>
	</g>
</g>
<g>
	<path class="st2" d="M245.82,49.02h-39.32c-3.86,0-6.99-2.11-6.99-4.72s3.13-4.72,6.99-4.72h39.32c3.86,0,6.99,2.11,6.99,4.72
		S249.68,49.02,245.82,49.02z"/>
</g>
</svg>
