<?xml version="1.0" encoding="utf-8"?>
<!-- Generator: Adobe Illustrator 24.0.0, SVG Export Plug-In . SVG Version: 6.00 Build 0)  -->
<svg version="1.1" id="圖層_1" xmlns="http://www.w3.org/2000/svg" xmlns:xlink="http://www.w3.org/1999/xlink" x="0px" y="0px"
	 viewBox="0 0 653.65 626.82" style="enable-background:new 0 0 653.65 626.82;" xml:space="preserve">
<style type="text/css">
	.st0{opacity:0.2;}
	.st1{fill:#040000;}
</style>
<g>
	<g>
		<path d="M379.9,383.92c-5.11-18.26-19.71-59.88-48.92-81.05c-2.19-0.73-2.92-2.19-2.92-4.38c0-0.73,0-5.11,5.11-5.11
			c15.34,0,67.91,49.66,75.21,75.94c0,16.07,0,24.83-10.22,24.83C390.12,394.14,382.09,394.14,379.9,383.92z"/>
	</g>
	<g>
		<path d="M375.32,243.89c-8.01-29.37-24.56-49.66-35.78-57.14c-1.6-0.53-2.13-2.14-2.13-3.2c0-0.53,0-3.74,3.74-3.74
			c11.75,0,50.2,36.85,55,52.87c0,12.28,0,18.69-6.94,18.69C382.26,251.36,376.39,251.36,375.32,243.89z"/>
	</g>
	<g>
		<path d="M172.39,231.89l-5.34-6.41c-5.34-21.36-18.69-45.93-32.04-54.47c-1.6-0.53-2.13-2.14-2.13-3.74s1.07-4.27,3.74-4.27
			c8.54,0,45.92,30.97,50.73,52.33c0,9.61,0,18.16-6.94,18.16L172.39,231.89z"/>
	</g>
	<g>
		<path d="M190.02,91.98c-5.34-16.55-17.63-45.92-36.31-58.74c-1.6-0.53-2.14-2.14-2.14-3.74c0-2.67,1.6-3.74,3.74-3.74
			c8.01,0,26.17,16.02,35.78,26.17c19.76,22.96,19.76,25.1,19.76,41.12c-1.6,3.74-4.27,6.41-7.48,6.94
			C197.49,99.99,191.62,98.92,190.02,91.98z"/>
	</g>
	<g>
		<path d="M32.73,284.68V135.22v-12.45h-3.2l-23.5-12.05V334.9c0,9.64,3.21,9.24,20.29,6.03c4.27-1.61,6.41-3.21,6.41-5.22v-31.43
			v-7.54V284.68z"/>
	</g>
	<g>
		<path d="M108.56,120.35L87.21,109.1l-12.28,13.66v12.45v149.46v12.05v7.54v9.34c0,10.04,2.67,9.64,20.29,6.43
			c4.27-1.21,6.41-3.62,6.41-6.43V137.23c0-1.61,2.13-3.21,5.34-4.42c3.2-0.8,4.81-3.21,5.34-5.62
			C112.3,124.77,111.23,121.96,108.56,120.35z"/>
	</g>
	<g>
		<path d="M193.75,296.54l-21.36-11.25l-12.28,13.66v12.45v129.75v12.05v7.54v9.34c0,10.04,2.67,9.64,20.29,6.43
			c4.27-1.21,6.41-3.62,6.41-6.43V313.41c0-1.61,2.13-3.21,5.34-4.42c3.2-0.8,4.81-3.21,5.34-5.62
			C197.49,300.96,196.43,298.14,193.75,296.54z"/>
	</g>
	<g>
		<path d="M644.35,26.59l-21.36-11.25l-12.28,13.66v12.45v129.75v12.05v7.54v9.34c0,10.04,2.67,9.64,20.29,6.43
			c4.27-1.21,6.41-3.62,6.41-6.43V43.47c0-1.61,2.13-3.21,5.34-4.42c3.2-0.8,4.81-3.21,5.34-5.62
			C648.09,31.01,647.02,28.2,644.35,26.59z"/>
	</g>
	<g>
		<path d="M644.35,234.06l-21.36-11.25l-12.28,13.66v12.45l26.7,2.01c0-1.61,2.13-3.21,5.34-4.42c3.2-0.8,4.81-3.21,5.34-5.62
			C648.09,238.48,647.02,235.67,644.35,234.06z"/>
	</g>
	<g>
		<path d="M509.26,79.42l11.25,16.25l-13.66,9.34h-12.45H364.64h-12.05h-7.54h-9.34c-10.04,0-9.64-2.03-6.43-15.44
			c1.21-3.25,3.62-4.88,6.43-4.88h156.67c1.61,0,3.21-1.62,4.42-4.06c0.8-2.44,3.21-3.66,5.62-4.06
			C504.83,76.58,507.65,77.39,509.26,79.42z"/>
	</g>
	<g>
		<path d="M479.63,606.61l18.77,11.25l10.8-13.66v-12.45V330.75V318.7v-7.54v-9.34c0-10.04-2.35-9.64-17.84-6.43
			c-3.76,1.21-5.63,3.62-5.63,6.43v287.91c0,1.61-1.88,3.21-4.69,4.42c-2.82,0.8-4.22,3.21-4.69,5.62
			C476.34,602.19,477.28,605,479.63,606.61z"/>
	</g>
	<g>
		<path d="M506.15,154.23c-2.34-2.34-5.45-3.63-8.77-3.63h-38.42c-6.84,0-12.4,5.56-12.4,12.4c0,6.84,5.56,12.4,12.4,12.4h26.01
			l-0.01,118.88c0.42,58.32-12.21,100.44-37.56,125.18c-19.03,18.58-46.03,27.45-80.25,26.36c-39.52-1.24-67.88-13.93-84.28-37.71
			c-37.09-53.78-5.15-149.25-4.82-150.2c2.23-6.46-1.2-13.54-7.67-15.78c-6.46-2.23-13.54,1.2-15.78,7.67
			c-1.51,4.38-36.56,107.93,7.81,172.34c21.12,30.66,56.09,46.97,103.95,48.47c2.06,0.07,4.2,0.1,6.34,0.1
			c38.29,0,69.25-11.27,92.02-33.51c30.36-29.63,45.51-77.76,45.04-143.02l0.01-131.2C509.79,159.69,508.5,156.57,506.15,154.23z"/>
	</g>
	<g>
		<path d="M548.37,303.51H337.4c-5.6,0-10.13-4.54-10.13-10.13s4.54-10.13,10.13-10.13h210.96c5.6,0,10.13,4.54,10.13,10.13
			S553.96,303.51,548.37,303.51z"/>
	</g>
	<g>
		<path d="M322.95,30.44c0-1.66,3.41-3.32,8.87-3.32c5.46-0.55,8.87-3.32,8.87-7.76s-4.78-7.76-14.33-7.76l-40.26-2.22l1.37,14.41
			c0,12.19-8.87,84.23-63.45,157.93c-1.36,1.66-2.04,3.33-2.04,4.99c0,2.22,2.04,3.88,5.46,3.88c5.46,0,39.57-32.69,60.72-74.26
			l12.96-27.15l8.19-16.62L322.95,30.44z"/>
	</g>
</g>
</svg>
