<?xml version="1.0" encoding="utf-8"?>
<!-- Generator: Adobe Illustrator 17.0.0, SVG Export Plug-In . SVG Version: 6.00 Build 0)  -->
<!DOCTYPE svg PUBLIC "-//W3C//DTD SVG 1.1//EN" "http://www.w3.org/Graphics/SVG/1.1/DTD/svg11.dtd">
<svg version="1.1" id="圖層_1" xmlns="http://www.w3.org/2000/svg" xmlns:xlink="http://www.w3.org/1999/xlink" x="0px" y="0px"
	 width="44.875px" height="15.625px" viewBox="0 0 44.875 15.625" enable-background="new 0 0 44.875 15.625" xml:space="preserve">
<g>
	<defs>
		<rect id="SVGID_1_" x="-0.684" y="-3.802" width="46.235" height="23.118"/>
	</defs>
	<clipPath id="SVGID_2_">
		<use xlink:href="#SVGID_1_"  overflow="visible"/>
	</clipPath>
	<path clip-path="url(#SVGID_2_)" fill="#221714" d="M21.649,9.155l0.048,5.003l3.702,0.898l2.272-1.225l10.242-5.522l2.199-1.186
		l1.376-0.741l1.703-0.919c1.833-0.988,1.497-1.436-0.823-4.335c-0.64-0.661-1.29-0.814-1.803-0.537l-15.154,8.17
		c-0.293,0.158-0.796-0.073-1.332-0.54c-0.462-0.505-1.059-0.56-1.551-0.42C22.088,8.038,21.68,8.509,21.649,9.155"/>
	<path clip-path="url(#SVGID_2_)" fill="#221714" d="M22.94,9.155l-0.048,5.003l-3.702,0.898l-2.272-1.225L6.676,8.309L4.477,7.123
		L3.101,6.382L1.398,5.463c-1.833-0.988-1.497-1.436,0.823-4.335c0.641-0.661,1.29-0.814,1.803-0.537l15.154,8.17
		c0.293,0.158,0.797-0.073,1.332-0.54c0.462-0.505,1.059-0.56,1.552-0.42C22.502,8.038,22.91,8.509,22.94,9.155"/>
</g>
</svg>
