<?xml version="1.0" encoding="utf-8"?>
<!-- Generator: Adobe Illustrator 23.1.0, SVG Export Plug-In . SVG Version: 6.00 Build 0)  -->
<svg version="1.1" id="圖層_1" xmlns="http://www.w3.org/2000/svg" xmlns:xlink="http://www.w3.org/1999/xlink" x="0px" y="0px"
	 viewBox="0 0 260.24 215.06" style="enable-background:new 0 0 260.24 215.06;" xml:space="preserve">
<style type="text/css">
	.st0{fill:#544E13;}
	.st1{fill:url(#SVGID_1_);}
	.st2{clip-path:url(#SVGID_3_);}
	.st3{fill:#FFF57B;}
	.st4{fill:none;stroke:#FFFFFF;stroke-width:0.1;stroke-miterlimit:10;}
	.st5{opacity:0.7;}
	.st6{fill:#FFFFFF;}
	.st7{fill:#FFFFFF;stroke:#FFFFFF;stroke-miterlimit:10;}
	.st8{fill:none;stroke:#FFF57B;stroke-width:3;stroke-miterlimit:10;}
	.st9{fill:none;stroke:#FFF57B;stroke-miterlimit:10;}
	.st10{clip-path:url(#SVGID_5_);fill:#FFF57B;}
	.st11{clip-path:url(#SVGID_7_);fill:#FFF57B;}
	.st12{clip-path:url(#SVGID_9_);fill:#FFF57B;}
	.st13{clip-path:url(#SVGID_11_);fill:#FFF57B;}
	.st14{clip-path:url(#SVGID_13_);fill:#FFF57B;}
	.st15{clip-path:url(#SVGID_15_);fill:#FFF57B;}
	.st16{fill:none;stroke:#000000;stroke-miterlimit:10;}
	.st17{fill:#FFF57B;stroke:#000000;stroke-miterlimit:10;}
	.st18{fill:url(#);}
	.st19{fill:url(#SVGID_16_);}
	.st20{clip-path:url(#SVGID_18_);}
	.st21{clip-path:url(#SVGID_20_);fill:#FFF57B;}
	.st22{clip-path:url(#SVGID_22_);fill:#FFF57B;}
	.st23{clip-path:url(#SVGID_24_);fill:#FFF57B;}
	.st24{clip-path:url(#SVGID_26_);fill:#FFF57B;}
	.st25{clip-path:url(#SVGID_28_);fill:#FFF57B;}
	.st26{clip-path:url(#SVGID_30_);fill:#FFF57B;}
	.st27{clip-path:url(#SVGID_32_);fill:#FFF57B;}
	.st28{clip-path:url(#SVGID_32_);fill:url(#);stroke:url(#);stroke-miterlimit:10;}
	.st29{clip-path:url(#SVGID_34_);fill:#FFF57B;}
	.st30{clip-path:url(#SVGID_36_);fill:#FFF57B;}
	.st31{clip-path:url(#SVGID_38_);fill:#FFF57B;}
	.st32{clip-path:url(#SVGID_40_);fill:#FFF57B;}
	.st33{clip-path:url(#SVGID_42_);fill:#FFF57B;}
	.st34{clip-path:url(#SVGID_44_);fill:#FFF57B;}
	.st35{fill:url(#SVGID_45_);}
	.st36{clip-path:url(#SVGID_47_);}
	.st37{filter:url(#Adobe_OpacityMaskFilter);}
	.st38{mask:url(#SVGID_48_);fill:#FFF57B;}
	.st39{filter:url(#Adobe_OpacityMaskFilter_1_);}
	.st40{mask:url(#SVGID_49_);fill:#FFF57B;}
	.st41{filter:url(#Adobe_OpacityMaskFilter_2_);}
	.st42{mask:url(#SVGID_50_);fill:#FFF57B;}
	.st43{filter:url(#Adobe_OpacityMaskFilter_3_);}
	.st44{mask:url(#SVGID_51_);fill:#FFF57B;}
	.st45{filter:url(#Adobe_OpacityMaskFilter_4_);}
	.st46{mask:url(#SVGID_52_);fill:#FFF57B;}
	.st47{filter:url(#Adobe_OpacityMaskFilter_5_);}
	.st48{mask:url(#SVGID_53_);fill:#FFF57B;}
	.st49{fill:url(#SVGID_54_);}
	.st50{clip-path:url(#SVGID_56_);}
	.st51{filter:url(#Adobe_OpacityMaskFilter_6_);}
	.st52{mask:url(#SVGID_57_);fill:#FFF57B;}
	.st53{filter:url(#Adobe_OpacityMaskFilter_7_);}
	.st54{mask:url(#SVGID_58_);fill:#FFF57B;}
	.st55{filter:url(#Adobe_OpacityMaskFilter_8_);}
	.st56{mask:url(#SVGID_59_);fill:#FFF57B;}
	.st57{filter:url(#Adobe_OpacityMaskFilter_9_);}
	.st58{mask:url(#SVGID_60_);fill:#FFF57B;}
	.st59{filter:url(#Adobe_OpacityMaskFilter_10_);}
	.st60{mask:url(#SVGID_61_);fill:#FFF57B;}
	.st61{filter:url(#Adobe_OpacityMaskFilter_11_);}
	.st62{mask:url(#SVGID_62_);fill:#FFF57B;}
</style>
<g>
	<path d="M133.11,29.01c-1.05-2.49-3.05-2.07-3.46-1.9c-0.07,0.03-0.58,0.05-0.58,0.05v0.19v0.67l2.41,2.26
		c0.85,1.48,2.17,0.89,2.17,0.89C134.95,30.49,133.11,29.01,133.11,29.01z"/>
	<path d="M129.5,31.74c-1.89-1.31-3.65-0.9-3.65-0.9s0,0-0.36,0.22c-0.36,0.22,1.22,1.22,1.22,1.22l1.55,0.5
		c1.48,1.84,2.22,1.51,2.22,1.51C132.2,33.73,131.39,33.04,129.5,31.74z"/>
	<path d="M257.52,175.7c0.67-1.34-1.67-4.51-1.67-4.51l1.67-1.45l-0.94-0.78c0.4-0.61-0.73-2.12-0.73-2.12l-1.09-2
		c-0.61-1.17,1.31-3.4,1.31-3.4v-0.89v-4.12l0.02-2.67c0.78-2.12-0.54-5.01-0.54-5.01c-1.11-3.12-2.16-1.67-2.16-1.67l-0.52-0.78
		c0.22-3.23-1.65-6.68-1.65-6.68l2.35-6.68c1.89-6.01-3.11-12.36-3.45-15.14c2.78-4.79,3.12-11.02,2.34-13.8
		c-0.78-2.78-1.33-7.9-1.33-7.9c-2.34-0.78-9.69-8.24-9.69-8.24l-3.78-11.24l-1.67-7.79c2.12-1-4.23-13.03-4.23-13.03
		c-0.33-2.89-4.23-8.91-4.23-8.91l-6.68-10.02c-0.22-2.89-3.01-3.34-3.01-3.34l-2.56-2.78c-3.45-4.9-5.45-4.89-5.45-4.89h-0.45
		c-7.35-7-18.93-11.69-18.93-11.69c-0.78-2.89-21.26-8.69-21.26-8.69c-5.57-1.89-8.91-0.2-8.91-0.2l-27.5-1.42h-7.85
		c-5.18-3-7.74-0.64-7.74-0.64C111.96,2.61,106,3.63,106,3.63c-4.73,0-5.4,0.79-5.4,0.79c-4.68-0.67-9.96,1.09-9.96,1.09
		c-4.01,0.72-4.17,3.74-4.17,3.74c-2.5-0.28-7.51,2.93-7.51,2.93c-1.67-0.06-3.4,1.33-3.4,1.33c-2.73-0.72-4.06,1.61-4.06,1.61
		c-3.4,0-10.63,6.96-10.63,6.96c-3.06,2.23-2.34,3.12-2.34,3.12L46.56,38.82c-3.17,2.84-11.58,17.26-13.97,20.32
		c-2.39,3.06-11.08,25.94-12.36,29.67c-1.28,3.73-4.29,19.48-4.29,19.48l0.39,7.96c-0.72,0.17-4.06,2.67-4.06,2.67
		s-0.11-1.11-5.4,2.73s-4.01,9.46-4.01,9.46l-0.45,4.73c-0.56,1.95,0.89,7.18,0.89,7.18l1.5,2.84c1.17,2.95,4.79,3.95,4.79,3.95
		c-0.72,0.5-0.5,1.5-0.5,1.5c3.73,1.06,3.06,6.4,3.06,6.4c-1.39,5.23-4.01,14.58-4.01,14.58c-1.84,6.29,2.28,9.35,2.28,9.35
		c-0.5,1.39,1.73,3.12,1.73,3.12l1.17,2.23c-1.61,0.56,0.17,1.61,0.17,1.61c0.84,0.28,2.39,2.45,2.39,2.45l0.5,3.45
		c-0.95,0.39-0.17,2.62-0.17,2.62l-1.28,5.84c-0.72,2.28,1.06,2.34,1.06,2.34l1.5,2l1.56,2.78c1,2.78,6.57,2.78,6.57,2.78
		c4.01,0.11,3.51-0.78,3.51-0.78c0.22-2.17,11.02-5.84,11.02-5.84l7.74-3.12c1.78,0.78,3.51-1.22,3.51-1.22
		c0.83-0.89,3.56-0.39,3.56-0.39l0.56-1l2.34-0.39l7.01-1.06c5.79-0.67,16.48-1.78,16.48-1.78c4.79-0.5,10.35,0.72,10.35,0.72
		l2.89,0.06c5.12-0.83,5.57,0.5,5.57,0.5l1.78,0.28l1.5,0.56c1.17-0.56,2.34,0.72,2.34,0.72c-0.06,1.56,1.61,0.83,1.61,0.83
		c0.45-1.17,3.06-1.89,3.06-1.89c2.5,0.28,4.06-0.17,4.06-0.17c0.56-1.95,1.95-1.28,1.95-1.28c0,1,2.06,0.05,2.06,0.05
		c0.45-1.28,6.68,0.67,6.68,0.67l5.34,0.22c2.39-1.34,6.71,0.78,6.71,0.78l5.82-0.06v-1.11l4.54,0.78c0.95,0.72,3.24,0.56,3.24,0.56
		c5.84-0.5,8.02,0.89,8.02,0.89c2.34,0.39,7.21,1.89,7.21,1.89l3.47,0.61l10.03,0.22l1.01-0.28c7.68,0.17,6.79,1.34,7.85,1.17
		c2.39-0.11,7.24,0.84,7.24,0.84c0.17,2.11,8.41,1.95,8.41,1.95c1.67,1.11,5.73,0.67,5.73,0.67l2.23,0.89c0,0-0.22-0.89,2.62,0
		c2.84,0.89,4.06,0.44,4.06,0.44c0.45-0.67,1.61-0.39,1.61-0.39l2.5,0.22l4.4,0.67c3.67,0.45,5.57,0,5.57,0l3.56-0.72
		c1.17-0.56,6.12-1.28,6.12-1.28c2.5-0.17,5.33-2.11,5.33-2.11c1.6-1.78,3.52-2.11,3.52-2.11c2.06-0.45,1.45-2.34,1.45-2.34
		c1.06-1.61,1.28-3.56,1.28-3.56c0.72-1.17,1.06-3.9,1.06-3.9c0.67-2,1-4.34,1-4.34c1-1.67-0.11-3.06-0.11-3.06
		c1.11-0.89,0.11-2.45,0.11-2.45c-1.28-2,0.67-4.01,0.67-4.01C258.18,178.03,257.52,175.7,257.52,175.7z M247.27,142.24l0.72,1.67
		l3.67,7.85c1.17,0.28,1.84,3.84,1.84,3.84c1.5,0.67-0.28,2.95-0.28,2.95l-0.61,2.67c-0.45,2.62-1.61,3.06-1.61,3.06
		c-2.06-0.84-2.95-7.12-2.95-7.12c2.17-2.95,1.39-5.57-0.61-7.18c0.56-3.01-3.9-10.74-3.9-10.91c0-0.17,0.95-3.84,0.84-7.35
		c-0.11-3.51,3.06-8.85,3.06-8.85c2.56,8.18-0.06,13.69-0.06,13.69C246.77,139.46,247.27,142.24,247.27,142.24z M242.65,174.03
		l-0.89,0.67c-2.28,0.33-1.71-3.95-1.71-3.95c-1.32-1.34-0.79-3.95-0.79-3.95c0.72-0.95,0.78-2.84,0.78-2.84
		c0.22-6.18-2.67-12.91-2.67-12.91c-0.11-1.67-1.06-2.28-1.06-2.28l-0.67-0.5c2.67-4.01,2.78-7.57,2.78-7.57
		c1.34-0.89,1.34-3.51,1.34-3.51l0.39,4.51c0,2.5,2,2,2,2c0.17,2.39-0.67,3.28-0.67,3.28c0.33,3.4-1.5,5.18-1.5,5.18
		c-0.45,2.89,0.89,4.34,0.89,4.34l3.17,5.01c1.28,0.11,2.06,5.84,2.06,5.84l-0.61,3.01c0.06,2.45-1.56,3.28-1.56,3.28
		C242.54,173.47,242.65,174.03,242.65,174.03z M115.82,5.44c-1.89,1.26-2.89,0.67-2.89,0.67C113.7,5.22,115.82,5.44,115.82,5.44z
		 M99.94,5.85l-9.69,1.71C94.15,5,99.94,5.85,99.94,5.85z M27.28,74.98c0.58-1.78,0.79-1.7,0.79-1.7v0.36l-0.41,1.5
		c-0.2,1.44-0.66,1.2-0.66,1.2C26.72,76.14,27.28,74.98,27.28,74.98z M10.9,147.45c-0.89-0.39-1.7-1.92-1.7-1.92
		c-1.61-0.11-1.42-1.03-1.42-1.03c0.17-1.31-0.64-2.28-0.64-2.28l-0.56-1c-0.78-1.5-1.11-8.04-1.11-8.04
		c0.14-1.34,2.06-4.95,2.06-4.95l0.61-1.11c1.09-0.56,1.64-2,1.64-2c1.45-2.34,5.23-3.51,5.23-3.51c-0.08,0.83-1.45,2.5-1.45,2.5
		c-0.64,1.2-2.06,3.12-2.06,3.12l-0.9,4.04c0,0-0.86,3.37-0.16,5.68c1.5,5.68,4.87,8.74,4.87,8.74c0.86,0.7,0.17,1.84,0.17,1.84
		l0.25,1.06c-0.61,0.58-0.5,1.17-0.5,1.17l-0.75,1.45c-0.64,0.19-1.59-1.2-1.59-1.2C12.88,148.7,10.9,147.45,10.9,147.45z
		 M17.83,153.04l0.9-3.56l0.72-1.39c0,0,3.79,1.61,4.68,1.39c0,0-2.28,3.95-2.34,5.62c0,0-1.73,6.18-1.89,8.18
		c-0.17,2-1,5.73-0.83,7.18c0.17,1.45-0.5,5.4-0.45,5.62c0.06,0.22-3.45-4.29-3.45-4.29s-2.89-4.34-1.39-7.07l1.06-4.9
		c0,0,0.95-1.34,1.56-2.62C16.39,157.22,15.94,154.43,17.83,153.04z M22.93,128.94l-0.14,1.03c-0.89,1.64-0.95,1.7-0.95,1.7
		C21.42,130.8,22.93,128.94,22.93,128.94z M23.18,209.82l-1.5,0.28c0.06-0.5-1-1.22-1-1.22c-1.61-0.06-1.22-1.45-1.22-1.45
		l0.17-1.22c-0.56-0.5-0.56-2.78-0.56-2.78c0.28-1.72-1.22-4.12-1.22-4.12l0.5-0.39l0.45-2.39c0.11-1,1.06-2.06,1.06-2.06
		c1.61-0.39,0.39-2.78,0.39-2.78l-4.56-6.4c-3.34-1.45-4.01-7.01-4.01-7.01c-1.61-2.51-0.39-4.79-0.39-4.79l2.06,1.95l3.51,4.12
		c-0.28,1.06,2.67,2.12,2.67,2.12c0.28,3.06,3.17,2.56,3.17,2.56c0.72,0.11,0.83,4.45,0.83,4.45c-1.28,0.45-0.67,5.84-0.67,5.84
		l-0.95,9.96c-0.28,1.89,2.28,5.18,2.28,5.18L23.18,209.82z M36.15,198.68l-0.33,5.51l-1.34,0.56c0,0,0.72,1.67-2,1.39l-4.9,2.77
		c0,0-2.9,0.3-2.57-3.53c0,0,0.07-6.05,0.07-8.24v-5.97c0,0,1.23-4.16,0.16-5.23l-1.09-3.04c0,0-0.32-1.48-0.88-2.12
		c0,0-0.72-3.82-2.2-3.67c0,0-1.08-1.67-0.23-2.63c0,0,0.76-1.78,0.83-3.3c0,0,0.68-2,0.3-3.75c0,0-0.03-2.67,0.67-3.45
		c0,0,1.71-3.75,1.34-5.08l1.23-4.97c0,0,1.08,2.49,2,2.67c0,0-0.37,1.93,0.67,3.01c0,0,0.67,3.67-0.3,7.01
		c0,0-2.78,7.31-1.06,12.21c0,0-0.11,4.01,3.45,5.07l2.28,1.39c0,0,1.17,2.56,3.06,2.95l0.67,1.56c0,0-0.06,3.4,0.67,4.29
		L36.15,198.68z M53.48,168.91l3.34-4.27l1.3,1.15l-4.49,4.82L53.48,168.91z M54.13,162.06l1.78,1.5l-2.28,2.62
		C53.62,166.18,54.46,164.45,54.13,162.06z M54.26,174.01l4.71-5.15h0.15l0.22,1.22l-5.08,6.09
		C53.85,175.5,54.26,174.01,54.26,174.01z M56.41,186.46c0.63,0.22,0.76,1.34,0.76,1.34c-0.37,1.56-2.1,3.15-2.1,3.15v-2.97
		L56.41,186.46z M54.7,186.05v-1.52c0.52-0.67,1,0.45,1,0.45L54.7,186.05z M56.19,179.07c-1.11,0.04-1.04-1.3-1.04-1.3l4.56-5.49
		l0.22,2.6L56.19,179.07z M56.89,196.88l-1.19,0.63c-1.89,0.41-1-3.19-1-3.19c1.08-1.19,2.45-2.71,2.45-2.71
		C58.15,196.11,56.89,196.88,56.89,196.88z M57.74,182.45l-0.82-0.89l3.41-3.79l0.59,1.22L57.74,182.45z M58.52,183.79l3.04-3.34
		l0.82,1.04l-3.45,3.64L58.52,183.79z M60.01,189.5c0-0.11-0.56-2.71-0.56-2.71l3.9-4.01l1.3,1.15
		C64.65,183.94,60.01,189.61,60.01,189.5z M63.87,176.39c-0.74,0.04-1.26-2.38-1.26-2.38l2.23-3.12c0.11,0.48,1.93,2.19,1.93,2.19
		L63.87,176.39z M67.99,174.39l0.93,0.41l-3.75,4.45l-0.48-0.56L67.99,174.39z M64.53,196.86H63.2l1.86-2.41L64.53,196.86z
		 M65.5,190.68l-5.05,6.01c0.26-0.67,0-3.86,0-3.86l0.48-0.78l5.01-5.91C66.5,187.62,65.5,190.68,65.5,190.68z M66.5,180.55
		l3.75-4.9c1.97,0.67,2.38,1.48,2.38,1.48l-4.25,5.79C67.95,182.48,66.5,180.55,66.5,180.55z M69.06,195.58l1.45-7.98
		c-0.3-0.07-0.87-2.56-0.87-2.56l2.43-3.97v1.67c0,0.96,0.28,4.12,0.28,4.12l-1.64,2.86l0.85,1.41l1.3-1.71l0.2,0.82l-1.4,1.93
		c2.23,1.11,2.16,2.93,2.16,2.93C71.21,195.25,69.06,195.58,69.06,195.58z M78.84,194.86h-2.17l0.47-1.82l5.93-7.72v4.29
		L78.84,194.86z M77.06,182.1l-0.39-4.45l2.62,0.89L77.06,182.1z M81.32,179.31c0,0,1.49,0.39,1.44,0.95l-5.69,7.57v-2.17
		L81.32,179.31z M84.02,194.86H81.4l2-2.32l1.06,0.74L84.02,194.86z M86.13,186.94l3.27-4.84c1.3,0.09,1.78,0.72,1.78,0.72
		l-4.3,6.23C86.43,188.87,86.13,186.94,86.13,186.94z M85.07,183.27v-2.34l1.6,0.41L85.07,183.27z M87.39,192.47l5.6-8.72
		c0.48-0.15,1.19,0.37,1.19,0.37l-6.2,9.98L87.39,192.47z M94.37,194.4c-1.48,1.67-3.82,0.56-3.82,0.56l3.49-5.9l0.56,3.56
		C94.59,193.32,94.37,194.4,94.37,194.4z M103.02,189.47l-3.86,5.39h-1.74l-0.15-2.2l4.45-6.55l1.97,0.29
		C102.98,186.55,103.02,189.47,103.02,189.47z M96.07,188.35v-3.23l2.34,0.45L96.07,188.35z M115.63,190.49l-2.67,4.37h-3.86
		c-0.74,0-0.44-1.79-0.44-1.79l4.52-5.23C116.41,187.43,115.63,190.49,115.63,190.49z M109.05,187.12c0.37,0.26,1.53,0.19,1.53,0.19
		l-1.51,1.86v-2.04C109.07,187.12,108.68,186.87,109.05,187.12z M120.27,194.03c-2.3-0.15-0.59-5.2-0.59-5.2l3.38,0.63
		L120.27,194.03z M124.72,193.66l-1.52,0.22l1.52-2.45C125.47,192.58,124.72,193.66,124.72,193.66z M139.07,193.88
		c-2-0.11-5.28,0-5.28,0c-2.82,0.3-3.98,0-3.98,0c-0.93-1.63,1.29-2.51,1.29-2.51c5.42,0.76,7.97,1.65,7.97,1.65V193.88z
		 M150.63,194.84c-1.45,0-7.56-0.82-7.56-0.82v-0.93l7.88,0.33C151.25,194.73,150.63,194.84,150.63,194.84z M164.06,194.75
		l-1.63,2.11h-3.82l-0.59-0.95c-0.04-1.74,2.12-2.9,2.12-2.9c2,0.3,3.71-1.15,3.71-1.15h1
		C163.87,192.86,164.06,194.75,164.06,194.75z M161.42,187.13c0,0,1.3-0.63,2.82-0.63l2.82,0.32
		C167.06,186.81,165.17,187.35,161.42,187.13z M169.48,195.29l3.12-4.27l1.48-0.3l-4.19,6.16L169.48,195.29z M172.41,197.96
		l4.49-6.83c0.78-0.19,0.56,2.93,0.56,2.93l-2.26,4.19L172.41,197.96z M176.82,198.63l0.89-1.74
		C177.75,198.93,176.82,198.63,176.82,198.63z M180.05,195.36c0,0-0.7-5.16,4.01-6.12L180.05,195.36z M181.05,199.37l4.9-7.72
		l0.45,3.04l-2.89,4.9L181.05,199.37z M186.18,199.93l0.82-1.67C187.44,200.11,186.18,199.93,186.18,199.93z M184.36,182.67
		c0,0-0.15-0.74,1.26-0.67c1.41,0.07,2.19-0.01,2.19-0.01S187.03,182.97,184.36,182.67z M190.08,187.52
		c0.67-0.75,4.53-1.53,4.53-1.53l-4.54,7.18v-5.54C190.07,187.64,189.41,188.28,190.08,187.52z M195.09,198.65
		c-0.03,1.46-0.81,2.21-0.81,2.21c-2.5,1.53-3.67-0.53-3.67-0.53l4.48-7.63C195.09,192.7,195.12,197.18,195.09,198.65z
		 M195.98,183.77c0,0-2.2,0.67-3.84,0.58c0,0,3.42-0.97,3.84-1.45C196.4,182.43,196.7,183.29,195.98,183.77z M199.07,200.47v-7.99
		c0,0,1.2,0.5,2.67,3.01C203.22,197.99,199.07,200.47,199.07,200.47z M203.95,178.55l-1.63,2.08c-0.05,0.91-0.67,1.04-0.67,1.04
		C200.76,180.37,203.95,178.55,203.95,178.55z M227.66,203.16c-2.56-1.04-4.3,0.07-4.3,0.07c-2.86,0.82-3.3-0.52-3.3-0.52
		l-0.59-1.48c-2.08-1.74-0.04-9.39-0.04-9.39l0.37-1.74l0.7-1l0.41-1.74c2.41-2.52,2.71-5.16,2.71-5.16c3.01-3.15,1.41-5.6,1.41-5.6
		l0.41-1.67l-0.04-1.08l0.15-1.78c1.19-1.22-0.04-2.86-0.04-2.86c0.7-1.34-1.59-5.6-1.59-5.6c-0.37-2.56-5.42-8.16-5.42-8.16
		l-0.33-2.82c1.19-0.96,0.41-2.23,0.41-2.23l2.49-3.67c1.78-1.63,1.45-3.64,1.45-3.64l1.89-3.12l-0.93-2.34
		c0.15-1.3-2.34-5.34-2.34-5.34l-1.34-2.49l-0.26-1.56c-2.78-4.04-1.26-5.42-1.26-5.42c0.74-1.56-1.15-1.22-1.15-1.22
		c-0.11-1.11,1.19-3.34,1.19-3.34c3.49-3.41,3.6-6.12,3.6-6.12l1.15-8.09c0.22-5.19-5.53-10.84-5.53-10.84
		c-1.08-0.63-3.49-4.34-3.49-4.34l-2,0.07c-0.82-1.22-3.23-1.37-3.23-1.37c-2.04,0.04-1.04,1.26-1.04,1.26l2.63,1.37
		c3.75,2.15,6.35,5.86,6.35,5.86c-1.48-0.22-0.74,1.19-0.74,1.19c2.12,2.6,2.04,13.03,2.04,13.03l-2.15,3.3
		c-3.34,5.53-2.34,11.5-2.34,11.5c-0.26,3.27,1.82,1.67,1.82,1.67l0.33,0.85l4.71,8.79c0.89,0.93,0.74,3.41,0.74,3.41l-1.15,0.52
		l-0.07,1.78l-0.82,3.64c-1.63,0-1.56,1.67-1.56,1.67l-1.41,3.15c-1.74,1.08,0.37,8.02,0.37,8.02l2.49,5.75c0.85,0.45,2,3.49,2,3.49
		c1.97,3.79,0.45,2.78,1,4.79c2.04,5.27,0.41,4.86,0.41,4.86c-2.67,0.15-6.2,14.95-6.2,14.95c-0.52,1.67-0.5,10.54-0.5,10.54
		c-0.26,0.33-8.42,0.63-8.42,0.63c-5.27,0.05-4.62-1.13-4.62-1.13c1.43-0.5,1.87-2.06,1.87-2.06l1.69-2.65
		c1.95-1.75-0.17-4.14-0.17-4.14c-0.72-0.76-1.52-3.41-1.52-3.41l-0.33,2.54c-0.58,0.59-0.93-0.84-1.08-1.24
		c-1.8-3.23-0.61-5.96,0.32-6.83c1.91-1.76,4.86-5.16,4.86-5.16s2.93-4.9,2.32-5.6c-0.61-0.7-0.52-3.34-0.22-3.73
		c0.69-0.91,0.06-1.71,0.06-1.71l-1.34-2.13l-0.28-1.74c0,0-1.93-3.95-2.28-5.19c-0.35-1.24-0.17-1.67,0.13-2.75
		c0.3-1.08-0.13-1.87-0.41-1.71c-0.82-2.15,2.13-5.42,2.13-5.42c2.17-1.54,2.15-5.31,2.15-5.31l1.87-2.02l-0.15-1.76l-0.22-3.01
		l-1.5-2.19c0,0-2.02-1.41-3.77-3.4c-1.74-1.99-2.21-4.77-2.45-6.2c-0.45-3.69,0.06-5.1,0.06-5.1c0.17-1.67,1.58-3.69,1.58-3.69
		s1.63-2.56,2.8-3.58c1.17-1.02,0.43-2.97,0.43-2.97l-1.47-2.52l-0.35-0.91c0,0-1.47-3.64-1.76-4.06c0.09-1.78-0.28-2.26-0.28-2.26
		s-1.37-0.24-1.22-0.72c0.15-0.48-1.63-0.61-1.63-0.61s-2.1-1.47-3.43-1.45c-1.34,0.02-1.65-1.35-1.65-1.35
		c0.15-1.15-1.99-1.11-1.99-1.11c-1.99-0.26-4.29-1.8-4.29-1.8c-2.36-1.26-5.16-3.77-5.16-3.77c-0.39-0.72-2.73-2.78-3.77-3.34
		c-1.04-0.56-0.65-2.39-0.65-2.39c0.5-1.41-1.37-1.58-1.37-1.58c-1.35,0.02-1.22,2.3-1.22,2.3c0.58,0.72-0.22,2.6-0.22,2.6
		l-0.3,1.47c0.67,0.72,0.03,1.93-0.19,1.95c-0.22,0.02-0.96-0.15-0.04,1.65c0.93,1.8-1.32,1.11-1.32,1.11
		c-0.22-0.33-1.04-0.24-1.04-0.24s-0.52-0.13-2.08-1.19c-1.56-1.06-3.36-2.28-3.71-2.56c-0.35-0.28-5.05-5.01-5.05-5.01
		c0.04-0.85-3.92-5.77-3.92-5.77c0.02-1.45-1.34-2.1-1.34-2.1s-0.91-1.21-2.38-1.91c-1.47-0.71-1.72,1.06-1.72,1.06l-0.8,0.28
		c-1.37,0.07-0.22,2.19-0.22,2.19c-0.32,1.45,1.8,5.64,1.8,5.64c-0.15,1.52,1.15,2.45,0.91,2.78c-0.24,0.33-3.45,0.45-5.34,0.32
		c-1.89-0.13-2.34-0.45-2.91-0.98c-0.58-0.54-2.41-3.3-3.06-4.49c-0.65-1.19-2.17-4.21-2.17-4.21c-1.28-1.45-3.23-5.53-3.23-5.53
		l-1.93-7.16c0.32-1.65-1.78-1.95-1.78-1.95c-0.91-0.61-0.41-1.87-0.41-1.87l-0.58-0.87l-0.07-2.84c-0.84-0.59-0.65-1.71-0.63-5.05
		c-0.07-7.44,1-8.61,1.04-9.55c0.04-0.95-1.32-0.67-1.32-0.67c-2.97-1.56-5.49,4.68-5.49,4.68c-1.37,1.56-2.08,7.38-2.23,10.31
		c-0.15,2.93,2.45,4.79,2.45,4.79l2.45,2.19l1,0.89l1.41,3.12l0.15,2.08l0.37,0.41l0.45,1.45l1.3,4.3l1.34,2.34l1.04,2.56l0.48,1.56
		l1.19,1.97c1.67,0.11,3.27,2.63,3.27,2.63c1.6,1.34,4.3,1.52,4.3,1.52c1.48,0.7,3.64,0.74,3.64,0.74l3.67-0.15l5.31-0.3l0.67,0.48
		l2.52,1.04c1.78,1.34,3.9,0.67,3.9,0.67l4.93,3.34l2.75,1.19c4.68,0.59,4.08-1.15,4.08-1.15c0.56-1.6,4.64,1.6,4.64,1.6l1.78,0.48
		l3.15,1.08l4.05,1.78l4.08,1.71l3.59,1.63l0.84-0.3v1.11l0.94,2.11l1.38,1.82l1.23,2.41l-0.44,1.71l-0.35,1.6
		c-0.41,0.96-3.66,4.71-3.66,4.71c-1.3,1.48-2.48,3.71-2.48,3.71l-0.89,1.22c-1.34-0.41-2.52,0.04-2.52,0.04s-0.67-0.3-2.19,0.3
		c-1.52,0.59,0.19,1.89,0.19,1.89l1.86-0.11l1.48,0.19c0,0,2-1.11,2.15-0.22c-0.07,3.6,1.71,4.71,1.71,4.71l3.38,4.68
		c1.3,0.07,4.38,2.78,4.38,2.78c0.63,0.74,0.56,3.41,0.56,3.41l-0.85,1.67l-1.86,0.67c-2.26,0.37-4.23,5.34-4.23,5.34l-0.78,1.82
		l-0.26,2.41c0,1.86,1.11,4.86,1.11,4.86l1.08,3.38c0.41,2.93,1.48,3.23,1.48,3.23c-0.19,1,0.89,2.3,0.89,2.3l1.04,0.96
		c0.59,2.38-2.23,6.94-2.23,6.94l-2.15,1c-2.67,2.19-5.57,2.19-5.57,2.19l-0.45-0.63c0.59-1.45-2.26-2.37-2.26-2.37l-0.7-0.59
		c0.22-1.56-0.45-1.6-0.45-1.6l-1-0.33c0.07-0.63-0.56-1.45-1.63-1.11c-1.08,0.33-0.26,1.6-0.26,1.6l1.45,1.97l1.08,1.11l1.08,1.08
		c0.89,0.41,1,1.6,1,1.6c-0.52,0.96-15.33,2.04-15.33,2.04c-3.93-0.26-4.79,2.19-4.79,2.19l-5.38,0.71l-6.23,1
		c-3.08,0.74-10.91,0.48-10.91,0.48l-11.36,0.37l-7.09-1.26l-4.75-0.07l-3.64-0.63l-5.97-1.34c-5.01-1.37-7.64-1.22-7.64-1.22
		c-4.49-0.85-15.77-4.56-15.77-4.56c-0.93-0.48-4.86-0.96-4.86-0.96l-8.35-3.38l-6.68-3.38l-2.78-1c-0.37-0.37,1.15-2.08,1.15-2.08
		l1.74-2.19c0,0,0.93-0.45,0.11-1.26c-0.82-0.82-1.56-0.45-1.56-0.45l-1,0.78l-0.85,1.71l-1.78,2.26
		c-12.65-6.75-17.63-15.4-17.63-15.4c-1.97-2.56-8.16-18.33-8.16-18.33c0.48-1.93-0.37-3.64-0.37-3.64l-0.3-3.19l3.9-0.48
		c2.08-0.22,2.08-1.45,2.08-1.45c0.85-1.11-1-1.56-1-1.56l-1.52,0.48l-3.45,0.26c-0.22-0.67,0.52-12.8,0.52-12.8
		c0.15-4.94,2.78-13.95,2.78-13.95l0.04-1.52c0.63-0.74,1.52-3.49,1.52-3.49s0.74-1.41,0.78-1.63c0.04-0.22,5.97-3.82,5.97-3.82
		c1.52-0.41,1.67-1.71,1.67-1.71l2.19-0.22c2.86-0.19,2-1.45,2-1.45l1.63,0.04l0.89,0.59c0.71,0.67,3.86,0.3,3.86,0.3
		c3.86-0.11,5.79-1.15,5.79-1.15c2.75-0.63,2.82-1.6,2.82-1.6c-0.93-1.26,2.67-1.93,2.67-1.93c1.48,0.11,1.19-1,1.19-1
		c0.3-0.78-0.41-0.89-0.41-0.89c-1.52,0-2.23-1.3-2.23-1.3c0.96-0.74,0.04-1.37,0.04-1.37c-1.08-0.78-0.96-1.97-0.96-1.97
		c1.97-1.93-0.15-2.12-0.15-2.12c-1.56-0.45-1.89,1.19-1.89,1.19l-0.48,1.6c-1.63,4.19-6.79,6.98-6.79,6.98
		c-4.6,2.15-10.17-0.82-10.17-0.82c-0.33-0.11-1.04,0.59-1.04,0.59c-2.26,0.11-2.15,0.74-2.15,0.74l0.93,0.93l2.23,0.15l3.19,0.85
		C58.86,82.03,52.55,81,52.55,81c-1.08,0.82,0.74,1.97,0.74,1.97l-8.57,4.56l-2.56-0.33l-0.33,1.56
		c-2.78,0.11-9.02,11.02-9.02,11.02c-1.56,3.56,1.45,10.02,1.45,10.02l3.79,4.12l-1.22,1.34l1.11,0.78l-0.11,8.13
		c1.11,2.89,0,4.56,0,4.56c-2.56,2.45-5.01,6.35-5.23,10.13c-0.22,3.79,3.56,7.24,3.56,7.24c0.45,1.89,3.56,3.01,3.56,3.01
		c0.56,2.78-0.89,7.24-0.89,7.24c-4.79,3.12,0.33,11.8,0.33,11.8l3.67,3.79l5.01,5.34l1,3.56c2.89,2.34,1.89,6.79,1.89,6.79
		c-2,1.45-1.45,4.23-1.45,4.23l-1.89,3.12c-1.22,1.56-0.54,5.68-0.54,5.68l-5.77,1.56v-4.68c1-8.68-2.57-10.13-2.69-12.24
		c-0.11-2.12-0.45-3.67-2.23-5.12c-5.23-4.56-3.01-13.36-3.01-13.36c-0.22-2.89-2.12-2.12-2.12-2.12c0-7.57-1.45-12.47-1.45-12.47
		l-2.45-3.01c1.89-0.78,1-2.78,1-2.78l-1.67-0.67c-4.45-2-0.11-17.7-0.11-17.7c1.89-5.68-0.56-8.68-0.56-8.68l-1,0.78
		c0,0-0.22,1-1.45,3.23c-4.79,5.45-5.79,14.69-5.79,14.69c1.45,1.45,1.78,5.68,1.78,5.68c-9.8-5.34-5.12-15.47-5.12-15.47
		c2.67-1.89,1.56-4.01,1.56-4.01l2.67-4.9c5.12-2.78,3.9-9.13,3.9-9.13c-3.78-3.23-1.22-7.57-1.22-7.57l1-4.12
		c1.78-1.11,2.12-5.57,2.12-5.57c1.67-9.57,17.48-39.52,21.37-45.2c3.9-5.68,19.15-21.26,19.15-21.26
		c6.46-6.68,20.15-11.36,20.15-11.36c17.26-5.9,27.61-6.9,27.61-6.9c8.79-2.67,30.84-2,30.84-2l9.02,1.22
		c14.69,1.78,32.23,9.8,32.23,9.8c4.34,0.22,17.53,10.02,17.53,10.02l4.23,4.73l8.57,8.35c2.23,1.34,6.62,8.46,6.62,8.46
		c4.4,5.4,7.18,15.59,7.18,15.59l2.23,6.07c0.06,1.5,0.06,3.56,0.06,3.56c0.72,0.28,1.73,2.56,1.73,2.56l0.17,3.12
		c1,0.67,2.12,5.9,2.12,5.9l1.17,2.62c2.11,0.22,2.56,2.5,2.56,2.5l1.95,2.73l6.23,9.35c3.23,5.12-3.51,18.03-3.51,18.03
		c-2.23,2.73-3.51,8.63-3.51,8.63c-0.61-1.61-0.78-8.52-0.78-8.52c-1-0.61-1.39-4.45-1.39-4.45c2-1.06,1.95-3.4,1.95-3.4l0.28-1.39
		c1.89-1.73,0.39-5.51,0.39-5.51c-0.5-1.95,1.11-2.23,1.11-2.23l-0.28-2.17c0-2.89-9.74-11.13-9.74-11.13
		c-3.06-1.61-5.73-9.74-5.73-9.74c-1.73-2.45-2.67-2.39-2.67-2.39l0.72,4.23c-0.95,0.17,0.72,2.67,0.72,2.67l1.34,2.39l1.39,2.34
		l1.34,1.95c-1.11,0.89,3.4,4.62,3.4,4.62c1.11,1.56,0.84,2.84,0.84,2.84l2.67,2.73c1.78,0.67,2.1,6.12,2.1,6.12
		c-1.08,1.19-2.3,6.46-2.3,6.46l-0.33,2.45c-0.85,0.04-0.56,1.97-0.56,1.97l0.3,1.22c-0.63,0.59,0.7,1.86,0.7,1.86
		c0.45,0.74,0.52,2.45,0.52,2.45l0.93,3.82l0.22,1.97c-0.52-0.04-0.3,1.52-0.3,1.52l-0.04,5.08l-0.37,0.89
		c-0.19,4.12-3.19,8.28-3.19,8.28c-1.56,0.74-0.97,4.64-0.97,4.64l0.56,1.93c-1.22,0,0.48,1.45,0.48,1.45
		c2.6,2.3,2.82,5.64,2.82,5.64c-0.67,0.52-0.26,3.15-0.26,3.15c1.22,2.23-1.86,6.09-1.86,6.09c-1.49,0.82-3.38,7.61-3.38,7.61
		l-0.33,1.26c-0.71,2.3-3.15,14.84-3.15,14.84l0,2.19v1.34l0.11,2.63C228.11,201.08,227.66,203.16,227.66,203.16z M206.99,145.56
		c0.15-0.74,1.34-1.04,1.34-1.04v1.04C207.29,146.9,206.99,145.56,206.99,145.56z M204.62,150.28l-0.23,1.78
		c0,0-0.89-0.19-0.48-1.41l0.19-2.15C204.1,148.5,204.91,148.35,204.62,150.28z M46.5,166.43l2.64-4.51l0.25,0.58l-0.25,1.25
		C48.56,165.34,46.5,166.43,46.5,166.43z M48.59,166.6v1.31c-0.53,0.33-1.06-0.42-1.06-0.42C48.06,167.51,48.59,166.6,48.59,166.6z
		 M45.58,165.29c0,0-0.7-0.11,0-1.59l-0.31-1.89c0,0,3.26-4.31,3.65-5.93c0,0,0.83,1.06,1.45,1.45L45.58,165.29z M43.24,144.36
		c0,0,3.03,6.9,3.56,7.24l-2.53,4.04l0.36,0.67l2.67-3.92l0.42,1l-1.34,2l0.58,0.92l1.28-1.84c0,0-0.19,1.7-1.45,3.34
		c0,0-3.05,3.81-2.99,5.23c0,0-1.74,0.08-1.74-1.86v-1.95c0,0,1.8-6.01,1.8-8.04C43.87,151.18,45.33,149.67,43.24,144.36z
		 M40.04,141.49c-3.23,0.36,0-7.57,0-7.57c-0.06,1.89,2.17,7.32,2.17,7.32L40.04,141.49z M41.35,146.64c0,0-1.45-2.28-2.09-2.39
		c0,0-0.42,0.28-0.42-0.86l1.81,0.31C40.66,143.69,41.41,145.94,41.35,146.64z M39.07,99.55v0.61l-1.06,6.23
		C36.51,101.33,39.07,99.55,39.07,99.55z M236.7,190.83c-0.45,0.67-0.87,4.45-0.98,7.41c-0.11,2.95,0.36,3.06,0.36,3.06v1.34
		l-2.92,0.11c-1.61,0.61-2.35,0.5-2.35,0.5c-3.17-1-0.26-12.47-0.26-12.47c1.06-0.95,1.38-2.23,1.38-2.23
		c0.84-6.51,4.16-9.69,4.16-9.69h0.22C238.65,178.86,236.7,190.83,236.7,190.83z M242.5,190.39l-0.01,2.95
		c0.11,2.51-0.45,3.9-0.45,3.9c0,4.79-1.45,4.4-1.45,4.4c-2.23,0.28-1.5-4.4-1.5-4.4l0.1-2.95c-0.56-3.51,1.28-4.95,1.28-4.95
		c0.17-2.84,0.72-2.5,0.72-2.5C242.71,186.44,242.5,190.39,242.5,190.39z M249.89,188.39c-0.67,0.89-0.39,3.45-0.39,3.45
		c0.95,5.45-3.95,8.35-3.95,8.35c-2.73,1-0.44-5.01-0.44-5.01c-0.88-0.33-0.17-1.78-0.17-1.78c0.84-3.62-1.61-9.46-1.61-9.46
		c-3.4-3.12-1.56-5.51-1.56-5.51c1.06-0.5,2.78,2.06,2.78,2.06c1.11-0.28,3.23,1.73,3.23,1.73l1.39,2.23
		C250.11,185.16,249.89,188.39,249.89,188.39z M253.23,179.26l-4.51-3.01l3.45-4.73C255.01,172.25,253.23,179.26,253.23,179.26z
		 M253.93,165.73c0.39,0.75,0.14,1.03,0.14,1.03l0.53,0.89l0.45,1.17C252.92,167.24,253.93,165.73,253.93,165.73z"/>
	<path d="M106.73,60.7c-0.78,0,0.56-4.68,0.56-4.68l0.33-2c0,0,1.34-2.67,4.12-5.57l2.78-3.45c0,0,3.67-2.45,5.79,4.45
		c0,0,0.6,8.02,2.83,6.68l1.94-1.22v-1.89c0,0,1.74-1.56,0.85-5.68c0,0-1.02-4.56-3.58-5.12c0,0-3.52-2.45-7.86-1.45
		c0,0-5.1-0.45-8.1,10.8l-0.66,1.45c0,0-1,6.79-0.77,8.68l-2.22,7.79c0,0,0,6.9-3.56,8.57c0,0-2.89,2.45-5.01,2l1.45-4.12
		c0,0,2-3.01-1.45-2.89l-3.9-0.11c0,0,0.89,4.56-0.78,6.68c0,0,0.11,2.12-3.79,1.89l-3.45,0.02c0,0,0.45,2.32,6.35,1.88
		c0,0,2.63-0.56,5.23-2.11c0,0,3.23,1.67,6.46-0.45l3.12-3.45l6.12-4.34l-1.11-8.79C108.4,64.26,107.51,60.7,106.73,60.7z"/>
	<path d="M177.75,121.09c0,0-0.31-0.75-2.56-0.58l-1.86-0.18l-2.28-0.49l-1.06-0.75c0,0-0.03-0.02-0.1-0.06
		c-0.29-0.16-1.24-0.55-2.74,0.06c0,0-1.64,0.89,0.36,1.28l1.11,0.53c0,0,0.14,0.53,2.14,0.7c0,0,1.11,0.45,4.09,0.28
		C177.83,121.7,177.75,121.09,177.75,121.09z"/>
	<path d="M190.69,127.35c0,0-1.34-1.03-2.31,0.19c-0.97,1.22-0.36,0.03-0.36,0.03s-2.56,1.5-1.22,2.98
		c0.67,0.47,1.45,0.08,1.67-0.56c0,0,0.28-0.79,1.34-0.83c0,0,1.03-0.17,1.14-0.81C190.94,128.36,191.33,127.63,190.69,127.35z"/>
	<path d="M185.13,137.48c0,0,0.64-0.03,0-1.14c0,0-0.25-2.62-1.36-2.34c0,0-1.61,0.19-1.89,2.7c0,0-1.78,1.86,0.42,2.17
		c0,0,1.45,0.45,1.73-2.09C184.01,136.79,184.93,137.07,185.13,137.48z"/>
	<path d="M180.79,147.17c0,0,0.19-2.06,0.64-2.28c0,0,0.47-0.64,0-1.09c0,0,0.08-0.72-0.5-0.78c0,0-1.73,0.31-2.09,1.81l-0.14,0.36
		c0,0-0.7,0.56-0.28,1.89c0,0-1.59,1.5,0.08,2.59c0,0,1.11,0.5,1.64-0.89C180.15,148.78,180.87,148.28,180.79,147.17z"/>
	<path d="M182.59,155.3c0,0-0.14-0.5,0.53-0.5c0,0,0.7-0.75-1.49-0.84c0,0-2.47-0.31-1.02,2.56c0,0,0.33,2.7,2.28,2.31
		c0,0,1.09-0.39,0.47-1.64L182.59,155.3z"/>
	<path d="M187.63,165.01l-0.47-1.28c0,0,0.11-0.82-0.78-0.81c0,0-2.67-0.58-1.06,2.56c0,0,1.06,2.62,2.28,2
		c1.22-0.61,0.53-1.48,0.53-1.95C188.13,165.06,187.63,165.01,187.63,165.01z"/>
	<path d="M157.32,93.93c-0.28,0.39,1.67,0.95,1.67,0.95l4.84,1.17l4.12,1.17c2.45,0.89,2.34-0.61,2.34-0.61
		c0.33-1.39-1.11-1.34-1.11-1.34c0.84-2.17-4.29-2.39-4.29-2.39l-2.62-0.56c-4.84-1.56-4.95-0.28-4.95-0.28s0,0-1,0.06
		c-1,0.06,0,1.89,0,1.89L157.32,93.93z"/>
	<path d="M167.96,109.01c0,0-4.05,2.06-1.44,5.18c0,0,5.78,4.29,13.85,4.23c8.07-0.06,18.7-0.72,19.7-1.67v-0.61l-1.89-0.17
		l-3.76,0.17l2.1-1.78c0,0,0.83-1.61-0.34-2.95l-1.59-1.45l-2.66-1.61c0,0-1.63-1.39-3.2-0.89l-3.32-0.28c0,0-0.87-0.56-1.81-0.45
		c0,0-1.89-0.89-3.45-0.11l-2.39,0.11l-3.4,0.33c0,0-1.95-1.67-4.95,0C167.9,108.07,167.96,109.01,167.96,109.01z M169.9,112.36
		c0,0,1.45-0.73,2.73-2.01c0,0,4.34-1.28,9.63-0.95c0,0,4.23-0.78,6.85,1.73c0,0,2.78,0.24,2.28,1.23c0,0-0.13,0.88-2.65,2.05
		l-3.69,0.97l-1.11,0.47h-3.95l-2.56-0.53l-1.95-0.01l-1.39-0.48l-1.5-0.8l-2.23-1.12C170.34,112.92,169.68,112.87,169.9,112.36z"/>
	<path d="M29.02,88.38c0,0-1.11,1.41-0.41,2.86c0,0,0.75,0.56,1.42-0.37l0.04-1v-1.86l-0.53-1.37L29.02,88.38z"/>
	<path d="M59.64,124.38c-0.45-0.11-1.67-0.39-1.67-0.39s-2.39-0.72-3.4,0.61c0,0-0.5,1.11,1.7,1.45l2.53,0.67c0,0,0.95,0,1.45-1
		C60.75,124.71,60.08,124.49,59.64,124.38z"/>
	<path d="M67.32,126.71c0,0-1.95-1.17-2.23,0c-0.28,1.17-0.17,1.78,2.23,2.84c0,0,1.89,1.56,2.62,0.72l0.39-1.92l-1.11-0.42
		L67.32,126.71z"/>
	<path d="M75.39,135.13l-1.89-1.27h-0.56c0,0-2-0.18-0.45,2.77c0,0,1.56,2,2.89,1C75.39,137.63,76.78,136.08,75.39,135.13z"/>
	<path d="M79.17,149.65c0,0,1.34-1.17,0-2l-0.17-0.94c0,0-0.33-2.04-0.75-2.21c-0.42-0.17-0.38-0.86-0.38-0.86l-0.53-0.22
		c0,0-2.39,0.45-0.83,4.23C76.5,147.64,77.39,151.09,79.17,149.65z"/>
	<path d="M79.12,152.86h-0.95c0,0-0.92,1.12-0.78,2.85c0,0-2,2.1-0.56,3c0,0,0.97,0.68,1.48-0.69c0,0,0.97-0.98,1.14-2.21l0.58-1.08
		c0,0,0.38-0.99-0.27-1.58L79.12,152.86z"/>
	<path d="M96.56,87.82c-1.48,0.15-1.67,0.45-1.67,0.45l-0.98-0.45l-2.64,0.31c0,0-2.95-0.3-4.22,0.52c-1.26,0.82-2,0.3-2,0.3
		s-2.45,3.56,0.52,3.79c0,0,5.49-0.89,8.83-0.89l2.67-0.45v-1.86C97.07,89.53,98.04,87.68,96.56,87.82z"/>
	<path d="M82.24,113.39c3.27-0.89,3.04-2.84,3.04-2.84c1.71-2.75-1.17-3.11-1.17-3.11l-1.28-1.22c-1.19-1.04-3.49-1.4-3.49-1.4
		c-1.71-1.63-5.39-0.81-5.39-0.81c-2.42-1.26-4.86,0.3-4.86,0.3c-5.05-0.07-6.61,1.93-6.61,1.93c-2.97,1.11-3.27,5.2-3.27,5.2
		c-2.38-0.07-3.56,0.37-3.56,0.37c0.67,1.78,8.02,2.08,8.02,2.08l1.93,0.15c0,0,1.78,0.62,2.52,0.55c0.74-0.07,3.77-0.71,3.77-0.71
		h5.36L82.24,113.39z M68.99,111.57c-5.9,0.56-4.79-2.78-4.79-2.78c1.06-2.17,7.12-1.84,7.12-1.84l3.9,0.49
		c5.51,0.21,6.29,2.07,6.29,2.07c2.84,0.61,0,1.39,0,1.39c-1.22,1.11-5.18,0.73-5.18,0.73S71.33,111.63,68.99,111.57z"/>
	<path d="M85.13,116.06c0,0-4.27,0.04-7.98,0c-3.71-0.04-4.38,0.67-4.38,0.67c-0.56,1,1.74,1.11,1.74,1.11l7.94-0.33
		c2.34-0.19,4.71-1.3,4.71-1.3l-0.19-0.52L85.13,116.06z"/>
	<path d="M127.32,106.51c0.78,0.45,0.72-0.67,0.72-0.67c-0.95-1.28,0.72-1.95,0.72-1.95l-1.45-2
		C124.76,104.56,127.32,106.51,127.32,106.51z"/>
	<path d="M123.87,108.05c1.37-0.19,0.97-1.43,0.97-1.43l-0.23-2.65c0.52-0.67,0-1.37,0-1.37s-0.52-0.78-1-0.71
		c-1.6,0.22-1.3,1.41-1.3,1.41l0.41,3.15C122.72,106.45,122.5,108.23,123.87,108.05z"/>
	<path d="M127.48,112.36c0,0-0.99-1.45-4.5-1.4c0,0-4.45-0.89-8.4,2.06c0,0-1.34,0.18-1.45,1.68c0,0-3.95,5.39-1.5,10.29l2.28,2.67
		c0,0,0.33,3.4,5.79,3.28l4.73,0.28c0,0,0.28,3.17,1.22,3.62c0,0,0.5,4.45,2.45,5.29c0,0,0.95-1.17,0.28-3.06l0.06-7.18
		c0,0,1.89-2.84-0.11-3.4c0,0-0.53-0.26-2.14,0.22l-0.94-0.26c0,0-1.15-0.67-2.49-0.67c-1.34,0-1.97,0.26-1.97,0.26
		s-1.78-0.41-2.34-0.33c-0.56,0.07-3.19-1.22-4.12-4.56c0,0,0.71-0.7,0.37-1.78c0,0,0.41-2,1-1.97c0,0,1.04,0.26,1.04-1.37
		c0,0,4.23-1.08,4.56-0.82c0.33,0.26,1.71,0.07,2.67-0.41c0,0,1.24,0.11,3.49,1.22c0,0,1.55,0.65,1.81-0.15l0.26-0.8
		c0,0,0.06-2.12-1.28-2.39L127.48,112.36z"/>
	<path d="M132.58,127.62l3.01,0.6c0,0,3.01,0.66,3.65-0.34c0,0,0.47-1.39-1.81-1.72l-2.12-0.3h-2.42
		C132.89,125.86,129.6,126.43,132.58,127.62z"/>
	<path d="M139.12,156.24c0.08,0.31,1.5,0,1.5,0c0.31,0.03,3.23-0.39,3.23-0.39l3.09-0.08l3.59,0.19c0.22,0.42,2.03,0,2.03,0
		c0.89-0.14,2-1.61,2-1.61l0.97-0.39l1-1.06c1.2-1.36-0.36-1.86-0.36-1.86c-1.61-0.95-3.09,1.36-3.09,1.36
		c-0.36-0.47-1.86,0.25-1.86,0.25l-7.32-0.31c-3.2-0.39-3.76,0.89-3.76,0.89l-1.03,0.39C137.12,155.46,139.12,156.24,139.12,156.24z
		"/>
	<path d="M149.42,163.03l-2.28-0.83c0,0-0.92-0.64-1.45-0.31l-1-0.17c0,0-2.42,0.17-0.61,2.59c1.14,1.2,4.23,1.84,4.23,1.84
		s3.34,0.7,3.09-1.84C151.4,164.31,150.95,162.92,149.42,163.03z"/>
</g>
</svg>
